<svg width="466" height="112" viewBox="0 0 466 112" fill="none" xmlns="http://www.w3.org/2000/svg">
<mask id="mask0_184134_3" style="mask-type:luminance" maskUnits="userSpaceOnUse" x="0" y="0" width="466" height="112">
<path d="M466 0H0V112H466V0Z" fill="white"/>
<path d="M1.12988 88.0001V11.0001H18.9499V88.0001H1.12988ZM111.804 27.9401C116.497 27.9401 120.64 28.8934 124.234 30.8001C127.9 32.6334 130.76 35.4934 132.814 39.3801C134.94 43.1934 136.004 48.1068 136.004 54.1201V88.0001H118.844V56.7601C118.844 51.9934 117.854 48.4734 115.874 46.2001C113.894 43.9268 111.107 42.7901 107.514 42.7901C105.02 42.7901 102.784 43.3768 100.804 44.5501C98.8237 45.6501 97.2837 47.3368 96.1837 49.6101C95.0837 51.8834 94.5337 54.7801 94.5337 58.3001V88.0001H77.3737V56.7601C77.3737 51.9934 76.3837 48.4734 74.4037 46.2001C72.497 43.9268 69.747 42.7901 66.1537 42.7901C63.6603 42.7901 61.4237 43.3768 59.4437 44.5501C57.4637 45.6501 55.9237 47.3368 54.8237 49.6101C53.7237 51.8834 53.1737 54.7801 53.1737 58.3001V88.0001H36.0137V28.8201H52.4037V44.9901L49.3237 40.2601C51.377 36.2268 54.2737 33.1834 58.0137 31.1301C61.827 29.0034 66.1537 27.9401 70.9937 27.9401C76.4203 27.9401 81.1503 29.3334 85.1837 32.1201C89.2903 34.8334 92.0037 39.0134 93.3237 44.6601L87.2737 43.0101C89.2537 38.3901 92.407 34.7234 96.7337 32.0101C101.134 29.2968 106.157 27.9401 111.804 27.9401ZM187.685 88.0001V76.4501L186.585 73.9201V53.2401C186.585 49.5734 185.448 46.7134 183.175 44.6601C180.975 42.6068 177.565 41.5801 172.945 41.5801C169.792 41.5801 166.675 42.0934 163.595 43.1201C160.588 44.0734 158.022 45.3934 155.895 47.0801L149.735 35.0901C152.962 32.8168 156.848 31.0568 161.395 29.8101C165.942 28.5634 170.562 27.9401 175.255 27.9401C184.275 27.9401 191.278 30.0668 196.265 34.3201C201.252 38.5734 203.745 45.2101 203.745 54.2301V88.0001H187.685ZM169.645 88.8801C165.025 88.8801 161.065 88.1101 157.765 86.5701C154.465 84.9568 151.935 82.7934 150.175 80.0801C148.415 77.3668 147.535 74.3234 147.535 70.9501C147.535 67.4301 148.378 64.3501 150.065 61.7101C151.825 59.0701 154.575 57.0168 158.315 55.5501C162.055 54.0101 166.932 53.2401 172.945 53.2401H188.675V63.2501H174.815C170.782 63.2501 167.995 63.9101 166.455 65.2301C164.988 66.5501 164.255 68.2001 164.255 70.1801C164.255 72.3801 165.098 74.1401 166.785 75.4601C168.545 76.7068 170.928 77.3301 173.935 77.3301C176.795 77.3301 179.362 76.6701 181.635 75.3501C183.908 73.9568 185.558 71.9401 186.585 69.3001L189.225 77.2201C187.978 81.0334 185.705 83.9301 182.405 85.9101C179.105 87.8901 174.852 88.8801 169.645 88.8801ZM247.535 110.22C241.962 110.22 236.572 109.523 231.365 108.13C226.232 106.81 221.942 104.793 218.495 102.08L225.315 89.7601C227.808 91.8134 230.962 93.4268 234.775 94.6001C238.662 95.8468 242.475 96.4701 246.215 96.4701C252.302 96.4701 256.702 95.1134 259.415 92.4001C262.202 89.6868 263.595 85.6534 263.595 80.3001V71.3901L264.695 56.5401L264.475 41.5801V28.8201H280.755V78.1001C280.755 89.1001 277.895 97.2034 272.175 102.41C266.455 107.617 258.242 110.22 247.535 110.22ZM244.895 85.1401C239.395 85.1401 234.408 83.9668 229.935 81.6201C225.535 79.2001 221.978 75.8634 219.265 71.6101C216.625 67.2834 215.305 62.2601 215.305 56.5401C215.305 50.7468 216.625 45.7234 219.265 41.4701C221.978 37.1434 225.535 33.8068 229.935 31.4601C234.408 29.1134 239.395 27.9401 244.895 27.9401C249.882 27.9401 254.282 28.9668 258.095 31.0201C261.908 33.0001 264.878 36.1168 267.005 40.3701C269.132 44.5501 270.195 49.9401 270.195 56.5401C270.195 63.0668 269.132 68.4568 267.005 72.7101C264.878 76.8901 261.908 80.0068 258.095 82.0601C254.282 84.1134 249.882 85.1401 244.895 85.1401ZM248.305 71.0601C251.312 71.0601 253.988 70.4734 256.335 69.3001C258.682 68.0534 260.515 66.3301 261.835 64.1301C263.155 61.9301 263.815 59.4001 263.815 56.5401C263.815 53.6068 263.155 51.0768 261.835 48.9501C260.515 46.7501 258.682 45.0634 256.335 43.8901C253.988 42.6434 251.312 42.0201 248.305 42.0201C245.298 42.0201 242.622 42.6434 240.275 43.8901C237.928 45.0634 236.058 46.7501 234.665 48.9501C233.345 51.0768 232.685 53.6068 232.685 56.5401C232.685 59.4001 233.345 61.9301 234.665 64.1301C236.058 66.3301 237.928 68.0534 240.275 69.3001C242.622 70.4734 245.298 71.0601 248.305 71.0601ZM296.727 88.0001V28.8201H313.887V88.0001H296.727ZM305.307 20.5701C302.153 20.5701 299.587 19.6534 297.607 17.8201C295.627 15.9868 294.637 13.7134 294.637 11.0001C294.637 8.28672 295.627 6.01339 297.607 4.18006C299.587 2.34672 302.153 1.43005 305.307 1.43005C308.46 1.43005 311.027 2.31006 313.007 4.07006C314.987 5.75673 315.977 7.95673 315.977 10.6701C315.977 13.5301 314.987 15.9134 313.007 17.8201C311.1 19.6534 308.533 20.5701 305.307 20.5701ZM365.783 27.9401C370.476 27.9401 374.656 28.8934 378.323 30.8001C382.063 32.6334 384.996 35.4934 387.123 39.3801C389.249 43.1934 390.313 48.1068 390.313 54.1201V88.0001H373.153V56.7601C373.153 51.9934 372.089 48.4734 369.963 46.2001C367.909 43.9268 364.976 42.7901 361.163 42.7901C358.449 42.7901 355.993 43.3768 353.793 44.5501C351.666 45.6501 349.979 47.3734 348.733 49.7201C347.559 52.0668 346.973 55.0734 346.973 58.7401V88.0001H329.813V28.8201H346.203V45.2101L343.123 40.2601C345.249 36.3001 348.293 33.2568 352.253 31.1301C356.213 29.0034 360.723 27.9401 365.783 27.9401ZM435.667 88.8801C428.92 88.8801 422.98 87.5601 417.847 84.9201C412.787 82.2801 408.864 78.6868 406.077 74.1401C403.29 69.5201 401.897 64.2768 401.897 58.4101C401.897 52.4701 403.254 47.2268 405.967 42.6801C408.754 38.0601 412.53 34.4668 417.297 31.9001C422.064 29.2601 427.454 27.9401 433.467 27.9401C439.26 27.9401 444.467 29.1868 449.087 31.6801C453.78 34.1001 457.484 37.6201 460.197 42.2401C462.91 46.7868 464.267 52.2501 464.267 58.6301C464.267 59.2901 464.23 60.0601 464.157 60.9401C464.084 61.7468 464.01 62.5168 463.937 63.2501H415.867V53.2401H454.917L448.317 56.2101C448.317 53.1301 447.694 50.4534 446.447 48.1801C445.2 45.9068 443.477 44.1468 441.277 42.9001C439.077 41.5801 436.51 40.9201 433.577 40.9201C430.644 40.9201 428.04 41.5801 425.767 42.9001C423.567 44.1468 421.844 45.9434 420.597 48.2901C419.35 50.5634 418.727 53.2768 418.727 56.4301V59.0701C418.727 62.2968 419.424 65.1568 420.817 67.6501C422.284 70.0701 424.3 71.9401 426.867 73.2601C429.507 74.5068 432.587 75.1301 436.107 75.1301C439.26 75.1301 442.01 74.6534 444.357 73.7001C446.777 72.7468 448.977 71.3168 450.957 69.4101L460.087 79.3101C457.374 82.3901 453.964 84.7734 449.857 86.4601C445.75 88.0734 441.02 88.8801 435.667 88.8801Z" fill="black"/>
</mask>
<g mask="url(#mask0_184134_3)">
<path d="M1.12988 88.0001H0.129883V89.0001H1.12988V88.0001ZM1.12988 11.0001V10.0001H0.129883V11.0001H1.12988ZM18.9499 11.0001H19.9499V10.0001H18.9499V11.0001ZM18.9499 88.0001V89.0001H19.9499V88.0001H18.9499ZM2.12988 88.0001V11.0001H0.129883V88.0001H2.12988ZM1.12988 12.0001H18.9499V10.0001H1.12988V12.0001ZM17.9499 11.0001V88.0001H19.9499V11.0001H17.9499ZM18.9499 87.0001H1.12988V89.0001H18.9499V87.0001ZM124.234 30.8001L123.765 31.6834L123.776 31.6891L123.787 31.6945L124.234 30.8001ZM132.814 39.3801L131.93 39.8472L131.935 39.8573L131.94 39.8672L132.814 39.3801ZM136.004 88.0001V89.0001H137.004V88.0001H136.004ZM118.844 88.0001H117.844V89.0001H118.844V88.0001ZM100.804 44.5501L101.289 45.4243L101.302 45.4175L101.314 45.4104L100.804 44.5501ZM94.5337 88.0001V89.0001H95.5337V88.0001H94.5337ZM77.3737 88.0001H76.3737V89.0001H77.3737V88.0001ZM74.4037 46.2001L73.6375 46.8427L73.6435 46.8499L73.6496 46.8569L74.4037 46.2001ZM59.4437 44.5501L59.9293 45.4243L59.9415 45.4175L59.9535 45.4104L59.4437 44.5501ZM53.1737 88.0001V89.0001H54.1737V88.0001H53.1737ZM36.0137 88.0001H35.0137V89.0001H36.0137V88.0001ZM36.0137 28.8201V27.8201H35.0137V28.8201H36.0137ZM52.4037 28.8201H53.4037V27.8201H52.4037V28.8201ZM52.4037 44.9901L51.5657 45.5358L53.4037 48.3584V44.9901H52.4037ZM49.3237 40.2601L48.4325 39.8064L48.1703 40.3215L48.4857 40.8058L49.3237 40.2601ZM58.0137 31.1301L58.4949 32.0067L58.5007 32.0035L58.0137 31.1301ZM85.1837 32.1201L84.6152 32.9428L84.6238 32.9487L84.6324 32.9544L85.1837 32.1201ZM93.3237 44.6601L93.0605 45.6249L94.6794 46.0664L94.2974 44.4325L93.3237 44.6601ZM87.2737 43.0101L86.3545 42.6162L85.9018 43.6725L87.0105 43.9749L87.2737 43.0101ZM96.7337 32.0101L96.2087 31.1589L96.2024 31.1629L96.7337 32.0101ZM111.804 28.9401C116.359 28.9401 120.337 29.8644 123.765 31.6834L124.702 29.9167C120.944 27.9225 116.635 26.9401 111.804 26.9401V28.9401ZM123.787 31.6945C127.253 33.4276 129.966 36.131 131.93 39.8472L133.698 38.913C131.555 34.8559 128.548 31.8392 124.681 29.9057L123.787 31.6945ZM131.94 39.8672C133.959 43.4859 135.004 48.216 135.004 54.1201H137.004C137.004 47.9976 135.922 42.9009 133.687 38.893L131.94 39.8672ZM135.004 54.1201V88.0001H137.004V54.1201H135.004ZM136.004 87.0001H118.844V89.0001H136.004V87.0001ZM119.844 88.0001V56.7601H117.844V88.0001H119.844ZM119.844 56.7601C119.844 51.885 118.836 48.0788 116.628 45.5433L115.12 46.8569C116.871 48.8681 117.844 52.1018 117.844 56.7601H119.844ZM116.628 45.5433C114.421 43.0099 111.335 41.7901 107.514 41.7901V43.7901C110.879 43.7901 113.366 44.8437 115.12 46.8569L116.628 45.5433ZM107.514 41.7901C104.856 41.7901 102.441 42.4175 100.294 43.6898L101.314 45.4104C103.126 44.3361 105.184 43.7901 107.514 43.7901V41.7901ZM100.318 43.6759C98.1375 44.8873 96.4624 46.7381 95.2835 49.1745L97.0838 50.0457C98.1049 47.9355 99.5098 46.4129 101.289 45.4243L100.318 43.6759ZM95.2835 49.1745C94.0972 51.6263 93.5337 54.685 93.5337 58.3001H95.5337C95.5337 54.8752 96.0701 52.1406 97.0838 50.0457L95.2835 49.1745ZM93.5337 58.3001V88.0001H95.5337V58.3001H93.5337ZM94.5337 87.0001H77.3737V89.0001H94.5337V87.0001ZM78.3737 88.0001V56.7601H76.3737V88.0001H78.3737ZM78.3737 56.7601C78.3737 51.885 77.366 48.0788 75.1577 45.5433L73.6496 46.8569C75.4013 48.8681 76.3737 52.1018 76.3737 56.7601H78.3737ZM75.1698 45.5575C73.0331 43.0099 69.9741 41.7901 66.1537 41.7901V43.7901C69.5199 43.7901 71.9608 44.8437 73.6375 46.8427L75.1698 45.5575ZM66.1537 41.7901C63.4964 41.7901 61.081 42.4175 58.9339 43.6898L59.9535 45.4104C61.7664 44.3361 63.8243 43.7901 66.1537 43.7901V41.7901ZM58.958 43.6759C56.7775 44.8873 55.1024 46.7381 53.9235 49.1745L55.7238 50.0457C56.7449 47.9355 58.1498 46.4129 59.9293 45.4243L58.958 43.6759ZM53.9235 49.1745C52.7372 51.6263 52.1737 54.685 52.1737 58.3001H54.1737C54.1737 54.8752 54.7101 52.1406 55.7238 50.0457L53.9235 49.1745ZM52.1737 58.3001V88.0001H54.1737V58.3001H52.1737ZM53.1737 87.0001H36.0137V89.0001H53.1737V87.0001ZM37.0137 88.0001V28.8201H35.0137V88.0001H37.0137ZM36.0137 29.8201H52.4037V27.8201H36.0137V29.8201ZM51.4037 28.8201V44.9901H53.4037V28.8201H51.4037ZM53.2416 44.4444L50.1616 39.7144L48.4857 40.8058L51.5657 45.5358L53.2416 44.4444ZM50.2148 40.7138C52.1829 36.8479 54.9419 33.9574 58.4949 32.0067L57.5324 30.2535C53.6055 32.4095 50.5711 35.6056 48.4325 39.8064L50.2148 40.7138ZM58.5007 32.0035C62.1495 29.9686 66.3052 28.9401 70.9937 28.9401V26.9401C66.0021 26.9401 61.5045 28.0383 57.5266 30.2567L58.5007 32.0035ZM70.9937 28.9401C76.2399 28.9401 80.7667 30.2838 84.6152 32.9428L85.7521 31.2974C81.5339 28.383 76.6007 26.9401 70.9937 26.9401V28.9401ZM84.6324 32.9544C88.4886 35.5023 91.077 39.4425 92.3499 44.8877L94.2974 44.4325C92.9303 38.5843 90.0921 34.1646 85.7349 31.2858L84.6324 32.9544ZM93.5868 43.6953L87.5368 42.0453L87.0105 43.9749L93.0605 45.6249L93.5868 43.6953ZM88.1928 43.404C90.0913 38.9742 93.1077 35.4644 97.2649 32.8573L96.2024 31.1629C91.7063 33.9825 88.416 37.806 86.3545 42.6162L88.1928 43.404ZM97.2585 32.8613C101.486 30.2541 106.325 28.9401 111.804 28.9401V26.9401C105.989 26.9401 100.781 28.3394 96.2087 31.1589L97.2585 32.8613ZM187.685 88.0001H186.685V89.0001H187.685V88.0001ZM187.685 76.4501H188.685V76.2421L188.602 76.0514L187.685 76.4501ZM186.585 73.9201H185.585V74.1281L185.668 74.3188L186.585 73.9201ZM183.175 44.6601L182.493 45.3912L182.498 45.3967L182.505 45.4022L183.175 44.6601ZM163.595 43.1201L163.897 44.0733L163.904 44.0711L163.911 44.0688L163.595 43.1201ZM155.895 47.0801L155.005 47.5371L155.562 48.6204L156.516 47.8636L155.895 47.0801ZM149.735 35.0901L149.159 34.2726L148.448 34.7735L148.845 35.5471L149.735 35.0901ZM203.745 88.0001V89.0001H204.745V88.0001H203.745ZM157.765 86.5701L157.326 87.4685L157.334 87.4725L157.342 87.4763L157.765 86.5701ZM150.065 61.7101L149.233 61.1554L149.227 61.1635L149.222 61.1717L150.065 61.7101ZM158.315 55.5501L158.68 56.4811L158.688 56.478L158.696 56.4748L158.315 55.5501ZM188.675 53.2401H189.675V52.2401H188.675V53.2401ZM188.675 63.2501V64.2501H189.675V63.2501H188.675ZM166.455 65.2301L165.804 64.4708L165.795 64.4787L165.786 64.4868L166.455 65.2301ZM166.785 75.4601L166.169 76.2476L166.187 76.2623L166.207 76.2761L166.785 75.4601ZM181.635 75.3501L182.137 76.2149L182.147 76.2089L182.157 76.2027L181.635 75.3501ZM186.585 69.3001L187.534 68.9839L186.657 66.355L185.653 68.9377L186.585 69.3001ZM189.225 77.2201L190.175 77.5308L190.278 77.2171L190.174 76.9039L189.225 77.2201ZM188.685 88.0001V76.4501H186.685V88.0001H188.685ZM188.602 76.0514L187.502 73.5214L185.668 74.3188L186.768 76.8488L188.602 76.0514ZM187.585 73.9201V53.2401H185.585V73.9201H187.585ZM187.585 53.2401C187.585 49.3512 186.37 46.1981 183.845 43.918L182.505 45.4022C184.527 47.2288 185.585 49.7956 185.585 53.2401H187.585ZM183.857 43.929C181.394 41.6303 177.687 40.5801 172.945 40.5801V42.5801C177.443 42.5801 180.555 43.5832 182.493 45.3912L183.857 43.929ZM172.945 40.5801C169.681 40.5801 166.458 41.1118 163.279 42.1714L163.911 44.0688C166.892 43.0751 169.902 42.5801 172.945 42.5801V40.5801ZM163.293 42.1669C160.189 43.1511 157.509 44.5233 155.273 46.2966L156.516 47.8636C158.534 46.2636 160.988 44.9958 163.897 44.0733L163.293 42.1669ZM156.784 46.6231L150.624 34.6331L148.845 35.5471L155.005 47.5371L156.784 46.6231ZM150.311 35.9076C153.427 33.7124 157.203 31.9964 161.659 30.7745L161.13 28.8457C156.493 30.1172 152.496 31.9211 149.159 34.2726L150.311 35.9076ZM161.659 30.7745C166.12 29.5514 170.651 28.9401 175.255 28.9401V26.9401C170.472 26.9401 165.763 27.5755 161.13 28.8457L161.659 30.7745ZM175.255 28.9401C184.126 28.9401 190.868 31.0314 195.616 35.0809L196.914 33.5593C191.688 29.1021 184.423 26.9401 175.255 26.9401V28.9401ZM195.616 35.0809C200.305 39.0803 202.745 45.3874 202.745 54.2301H204.745C204.745 45.0328 202.198 38.0665 196.914 33.5593L195.616 35.0809ZM202.745 54.2301V88.0001H204.745V54.2301H202.745ZM203.745 87.0001H187.685V89.0001H203.745V87.0001ZM169.645 87.8801C165.133 87.8801 161.325 87.1279 158.188 85.6639L157.342 87.4763C160.805 89.0923 164.917 89.8801 169.645 89.8801V87.8801ZM158.204 85.6717C155.044 84.127 152.662 82.0773 151.014 79.5359L149.336 80.6243C151.207 83.5095 153.885 85.7866 157.326 87.4685L158.204 85.6717ZM151.014 79.5359C149.364 76.9918 148.535 74.139 148.535 70.9501H146.535C146.535 74.5078 147.466 77.7417 149.336 80.6243L151.014 79.5359ZM148.535 70.9501C148.535 67.5966 149.336 64.7084 150.908 62.2485L149.222 61.1717C147.42 63.9918 146.535 67.2636 146.535 70.9501H148.535ZM150.897 62.2648C152.516 59.8354 155.08 57.893 158.68 56.4811L157.95 54.6191C154.07 56.1406 151.133 58.3048 149.233 61.1554L150.897 62.2648ZM158.696 56.4748C162.271 55.0026 167.004 54.2401 172.945 54.2401V52.2401C166.859 52.2401 161.839 53.0176 157.934 54.6254L158.696 56.4748ZM172.945 54.2401H188.675V52.2401H172.945V54.2401ZM187.675 53.2401V63.2501H189.675V53.2401H187.675ZM188.675 62.2501H174.815V64.2501H188.675V62.2501ZM174.815 62.2501C170.744 62.2501 167.635 62.9016 165.804 64.4708L167.106 65.9894C168.355 64.9186 170.819 64.2501 174.815 64.2501V62.2501ZM165.786 64.4868C164.108 65.9972 163.255 67.9177 163.255 70.1801H165.255C165.255 68.4825 165.869 67.103 167.124 65.9734L165.786 64.4868ZM163.255 70.1801C163.255 72.6779 164.232 74.7321 166.169 76.2476L167.401 74.6726C165.964 73.5481 165.255 72.0823 165.255 70.1801H163.255ZM166.207 76.2761C168.191 77.6813 170.8 78.3301 173.935 78.3301V76.3301C171.056 76.3301 168.899 75.7322 167.363 74.6441L166.207 76.2761ZM173.935 78.3301C176.955 78.3301 179.698 77.6312 182.137 76.2149L181.133 74.4853C179.025 75.709 176.634 76.3301 173.935 76.3301V78.3301ZM182.157 76.2027C184.629 74.6878 186.416 72.4927 187.517 69.6625L185.653 68.9377C184.7 71.3875 183.187 73.2258 181.112 74.4975L182.157 76.2027ZM185.636 69.6163L188.276 77.5363L190.174 76.9039L187.534 68.9839L185.636 69.6163ZM188.274 76.9094C187.099 80.5045 184.975 83.2021 181.89 85.0526L182.919 86.7676C186.435 84.6581 188.857 81.5623 190.175 77.5308L188.274 76.9094ZM181.89 85.0526C178.791 86.912 174.732 87.8801 169.645 87.8801V89.8801C174.971 89.8801 179.418 88.8682 182.919 86.7676L181.89 85.0526ZM231.365 108.13L231.624 107.164L231.614 107.162L231.365 108.13ZM218.495 102.08L217.62 101.596L217.208 102.34L217.877 102.866L218.495 102.08ZM225.315 89.7601L225.951 88.9882L225.023 88.2237L224.44 89.2758L225.315 89.7601ZM234.775 94.6001L235.081 93.6478L235.069 93.6443L234.775 94.6001ZM259.415 92.4001L258.717 91.6836L258.708 91.693L259.415 92.4001ZM263.595 71.3901L262.598 71.3162L262.595 71.3531V71.3901H263.595ZM264.695 56.5401L265.692 56.614L265.696 56.5697L265.695 56.5254L264.695 56.5401ZM264.475 41.5801H263.475V41.5875V41.5948L264.475 41.5801ZM264.475 28.8201V27.8201H263.475V28.8201H264.475ZM280.755 28.8201H281.755V27.8201H280.755V28.8201ZM229.935 81.6201L229.453 82.4963L229.462 82.5011L229.471 82.5056L229.935 81.6201ZM219.265 71.6101L218.412 72.131L218.417 72.1395L218.422 72.1479L219.265 71.6101ZM219.265 41.4701L218.418 40.9388L218.416 40.9427L219.265 41.4701ZM229.935 31.4601L229.471 30.5745L229.465 30.5777L229.935 31.4601ZM258.095 31.0201L257.621 31.9006L257.628 31.9041L257.634 31.9076L258.095 31.0201ZM267.005 40.3701L266.111 40.8173L266.114 40.8236L267.005 40.3701ZM267.005 72.7101L267.896 73.1636L267.9 73.1573L267.005 72.7101ZM256.335 69.3001L256.782 70.1945L256.793 70.189L256.804 70.1832L256.335 69.3001ZM261.835 48.9501L260.978 49.4646L260.982 49.4711L260.986 49.4775L261.835 48.9501ZM256.335 43.8901L255.866 44.7732L255.877 44.779L255.888 44.7845L256.335 43.8901ZM240.275 43.8901L240.722 44.7845L240.733 44.779L240.744 44.7732L240.275 43.8901ZM234.665 48.9501L233.82 48.415L233.816 48.4227L234.665 48.9501ZM234.665 64.1301L233.808 64.6446L233.814 64.6549L233.82 64.6652L234.665 64.1301ZM240.275 69.3001L239.806 70.1832L239.817 70.189L239.828 70.1945L240.275 69.3001ZM247.535 109.22C242.046 109.22 236.743 108.534 231.624 107.164L231.107 109.096C236.4 110.513 241.878 111.22 247.535 111.22V109.22ZM231.614 107.162C226.588 105.869 222.431 103.906 219.114 101.294L217.877 102.866C221.453 105.681 225.876 107.751 231.116 109.098L231.614 107.162ZM219.37 102.564L226.19 90.2444L224.44 89.2758L217.62 101.596L219.37 102.564ZM224.679 90.532C227.294 92.6854 230.571 94.3529 234.481 95.5559L235.069 93.6443C231.352 92.5006 228.323 90.9415 225.951 88.9882L224.679 90.532ZM234.47 95.5523C238.446 96.8278 242.362 97.4701 246.215 97.4701V95.4701C242.588 95.4701 238.878 94.8657 235.081 93.6478L234.47 95.5523ZM246.215 97.4701C252.417 97.4701 257.137 96.0927 260.122 93.1072L258.708 91.693C256.267 94.1342 252.187 95.4701 246.215 95.4701V97.4701ZM260.113 93.1166C263.156 90.153 264.595 85.8191 264.595 80.3001H262.595C262.595 85.4878 261.246 89.2206 258.717 91.6836L260.113 93.1166ZM264.595 80.3001V71.3901H262.595V80.3001H264.595ZM264.592 71.464L265.692 56.614L263.698 56.4662L262.598 71.3162L264.592 71.464ZM265.695 56.5254L265.475 41.5654L263.475 41.5948L263.695 56.5548L265.695 56.5254ZM265.475 41.5801V28.8201H263.475V41.5801H265.475ZM264.475 29.8201H280.755V27.8201H264.475V29.8201ZM279.755 28.8201V78.1001H281.755V28.8201H279.755ZM279.755 78.1001C279.755 88.9403 276.938 96.7222 271.502 101.67L272.848 103.15C278.852 97.6846 281.755 89.2599 281.755 78.1001H279.755ZM271.502 101.67C266.027 106.654 258.089 109.22 247.535 109.22V111.22C258.395 111.22 266.884 108.579 272.848 103.15L271.502 101.67ZM244.895 84.1401C239.542 84.1401 234.717 82.9995 230.4 80.7346L229.471 82.5056C234.1 84.934 239.248 86.1401 244.895 86.1401V84.1401ZM230.417 80.7439C226.165 78.405 222.732 75.185 220.108 71.0723L218.422 72.1479C221.225 76.5418 224.906 79.9952 229.453 82.4963L230.417 80.7439ZM220.119 71.0892C217.586 66.9389 216.305 62.1005 216.305 56.5401H214.305C214.305 62.4197 215.664 67.628 218.412 72.131L220.119 71.0892ZM216.305 56.5401C216.305 50.9033 217.588 46.0689 220.115 41.9975L218.416 40.9427C215.663 45.378 214.305 50.5903 214.305 56.5401H216.305ZM220.112 42.0014C222.735 37.8189 226.164 34.6049 230.406 32.3425L229.465 30.5777C224.907 33.0086 221.222 36.468 218.418 40.9388L220.112 42.0014ZM230.4 32.3456C234.717 30.0807 239.542 28.9401 244.895 28.9401V26.9401C239.248 26.9401 234.1 28.1461 229.471 30.5745L230.4 32.3456ZM244.895 28.9401C249.742 28.9401 253.974 29.9369 257.621 31.9006L258.569 30.1396C254.589 27.9967 250.022 26.9401 244.895 26.9401V28.9401ZM257.634 31.9076C261.24 33.7799 264.068 36.7317 266.111 40.8173L267.9 39.9229C265.689 35.5019 262.577 32.2203 258.556 30.1326L257.634 31.9076ZM266.114 40.8236C268.146 44.8177 269.195 50.0374 269.195 56.5401H271.195C271.195 49.8428 270.118 44.2825 267.896 39.9166L266.114 40.8236ZM269.195 56.5401C269.195 62.9662 268.147 68.1902 266.111 72.2629L267.9 73.1573C270.117 68.7233 271.195 63.1673 271.195 56.5401H269.195ZM266.114 72.2566C264.072 76.2709 261.24 79.2309 257.621 81.1796L258.569 82.9406C262.577 80.7826 265.685 77.5093 267.896 73.1636L266.114 72.2566ZM257.621 81.1796C253.974 83.1433 249.742 84.1401 244.895 84.1401V86.1401C250.022 86.1401 254.589 85.0835 258.569 82.9406L257.621 81.1796ZM248.305 72.0601C251.444 72.0601 254.278 71.4468 256.782 70.1945L255.888 68.4057C253.699 69.5001 251.179 70.0601 248.305 70.0601V72.0601ZM256.804 70.1832C259.306 68.8545 261.276 67.0062 262.693 64.6446L260.978 63.6156C259.755 65.654 258.058 67.2524 255.866 68.417L256.804 70.1832ZM262.693 64.6446C264.116 62.2718 264.815 59.56 264.815 56.5401H262.815C262.815 59.2402 262.194 61.5884 260.978 63.6156L262.693 64.6446ZM264.815 56.5401C264.815 53.4529 264.119 50.7333 262.685 48.4227L260.986 49.4775C262.191 51.4203 262.815 53.7606 262.815 56.5401H264.815ZM262.693 48.4356C261.272 46.0687 259.295 44.252 256.782 42.9957L255.888 44.7845C258.069 45.8748 259.758 47.4315 260.978 49.4646L262.693 48.4356ZM256.804 43.007C254.295 41.674 251.454 41.0201 248.305 41.0201V43.0201C251.17 43.0201 253.682 43.6129 255.866 44.7732L256.804 43.007ZM248.305 41.0201C245.157 41.0201 242.315 41.674 239.806 43.007L240.744 44.7732C242.928 43.6129 245.44 43.0201 248.305 43.0201V41.0201ZM239.828 42.9957C237.32 44.2497 235.312 46.0601 233.82 48.415L235.51 49.4852C236.805 47.4401 238.537 45.8771 240.722 44.7845L239.828 42.9957ZM233.816 48.4227C232.381 50.7333 231.685 53.4529 231.685 56.5401H233.685C233.685 53.7606 234.309 51.4203 235.515 49.4775L233.816 48.4227ZM231.685 56.5401C231.685 59.56 232.384 62.2718 233.808 64.6446L235.523 63.6156C234.306 61.5884 233.685 59.2402 233.685 56.5401H231.685ZM233.82 64.6652C235.309 67.0149 237.309 68.8568 239.806 70.1832L240.744 68.417C238.548 67.25 236.808 65.6453 235.51 63.595L233.82 64.6652ZM239.828 70.1945C242.332 71.4468 245.166 72.0601 248.305 72.0601V70.0601C245.431 70.0601 242.911 69.5001 240.722 68.4057L239.828 70.1945ZM296.727 88.0001H295.727V89.0001H296.727V88.0001ZM296.727 28.8201V27.8201H295.727V28.8201H296.727ZM313.887 28.8201H314.887V27.8201H313.887V28.8201ZM313.887 88.0001V89.0001H314.887V88.0001H313.887ZM313.007 4.07006L312.342 4.81747L312.35 4.82447L312.358 4.8313L313.007 4.07006ZM297.727 88.0001V28.8201H295.727V88.0001H297.727ZM296.727 29.8201H313.887V27.8201H296.727V29.8201ZM312.887 28.8201V88.0001H314.887V28.8201H312.887ZM313.887 87.0001H296.727V89.0001H313.887V87.0001ZM305.307 19.5701C302.36 19.5701 300.05 18.72 298.286 17.0863L296.927 18.5539C299.123 20.5868 301.947 21.5701 305.307 21.5701V19.5701ZM298.286 17.0863C296.512 15.4434 295.637 13.4366 295.637 11.0001H293.637C293.637 13.9902 294.742 16.5301 296.927 18.5539L298.286 17.0863ZM295.637 11.0001C295.637 8.56353 296.512 6.5567 298.286 4.91382L296.927 3.4463C294.742 5.47007 293.637 8.00991 293.637 11.0001H295.637ZM298.286 4.91382C300.05 3.28011 302.36 2.43005 305.307 2.43005V0.430054C301.947 0.430054 299.123 1.41333 296.927 3.4463L298.286 4.91382ZM305.307 2.43005C308.264 2.43005 310.579 3.25011 312.342 4.81747L313.671 3.32265C311.474 1.37 308.656 0.430054 305.307 0.430054V2.43005ZM312.358 4.8313C314.104 6.31878 314.977 8.23523 314.977 10.6701H316.977C316.977 7.67822 315.869 5.19468 313.655 3.30882L312.358 4.8313ZM314.977 10.6701C314.977 13.2707 314.089 15.39 312.313 17.0998L313.7 18.5409C315.885 16.4374 316.977 13.7895 316.977 10.6701H314.977ZM312.314 17.0993C310.632 18.7157 308.335 19.5701 305.307 19.5701V21.5701C308.732 21.5701 311.568 20.5911 313.7 18.5409L312.314 17.0993ZM378.323 30.8001L377.861 31.6873L377.872 31.6928L377.882 31.698L378.323 30.8001ZM387.123 39.3801L386.245 39.8601L386.249 39.8672L387.123 39.3801ZM390.313 88.0001V89.0001H391.313V88.0001H390.313ZM373.153 88.0001H372.153V89.0001H373.153V88.0001ZM369.963 46.2001L369.22 46.8704L369.226 46.8769L369.232 46.8833L369.963 46.2001ZM353.793 44.5501L354.252 45.4384L354.263 45.4325L353.793 44.5501ZM348.733 49.7201L347.849 49.2509L347.844 49.2618L347.838 49.2729L348.733 49.7201ZM346.973 88.0001V89.0001H347.973V88.0001H346.973ZM329.813 88.0001H328.813V89.0001H329.813V88.0001ZM329.813 28.8201V27.8201H328.813V28.8201H329.813ZM346.203 28.8201H347.203V27.8201H346.203V28.8201ZM346.203 45.2101L345.354 45.7384L347.203 48.7101V45.2101H346.203ZM343.123 40.2601L342.242 39.787L341.968 40.2969L342.274 40.7884L343.123 40.2601ZM365.783 28.9401C370.337 28.9401 374.355 29.8643 377.861 31.6873L378.784 29.9129C374.956 27.9226 370.615 26.9401 365.783 26.9401V28.9401ZM377.882 31.698C381.425 33.4346 384.211 36.1423 386.245 39.8601L388 38.9001C385.781 34.8445 382.7 31.8323 378.763 29.9022L377.882 31.698ZM386.249 39.8672C388.267 43.4859 389.313 48.216 389.313 54.1201H391.313C391.313 47.9976 390.231 42.9009 387.996 38.893L386.249 39.8672ZM389.313 54.1201V88.0001H391.313V54.1201H389.313ZM390.313 87.0001H373.153V89.0001H390.313V87.0001ZM374.153 88.0001V56.7601H372.153V88.0001H374.153ZM374.153 56.7601C374.153 51.8705 373.065 48.0529 370.693 45.5169L369.232 46.8833C371.113 48.8939 372.153 52.1163 372.153 56.7601H374.153ZM370.705 45.5298C368.417 42.997 365.184 41.7901 361.163 41.7901V43.7901C364.768 43.7901 367.401 44.8565 369.22 46.8704L370.705 45.5298ZM361.163 41.7901C358.3 41.7901 355.679 42.4105 353.322 43.6677L354.263 45.4325C356.306 44.343 358.599 43.7901 361.163 43.7901V41.7901ZM353.333 43.6619C351.006 44.8654 349.181 46.7453 347.849 49.2509L349.616 50.1893C350.778 48.0015 352.326 46.4349 354.252 45.4384L353.333 43.6619ZM347.838 49.2729C346.573 51.8024 345.973 54.9762 345.973 58.7401H347.973C347.973 55.1707 348.545 52.3312 349.627 50.1673L347.838 49.2729ZM345.973 58.7401V88.0001H347.973V58.7401H345.973ZM346.973 87.0001H329.813V89.0001H346.973V87.0001ZM330.813 88.0001V28.8201H328.813V88.0001H330.813ZM329.813 29.8201H346.203V27.8201H329.813V29.8201ZM345.203 28.8201V45.2101H347.203V28.8201H345.203ZM347.052 44.6818L343.972 39.7318L342.274 40.7884L345.354 45.7384L347.052 44.6818ZM344.004 40.7332C346.037 36.9463 348.939 34.0448 352.726 32.0111L351.779 30.2491C347.646 32.4687 344.461 35.6539 342.242 39.787L344.004 40.7332ZM352.726 32.0111C356.523 29.9719 360.867 28.9401 365.783 28.9401V26.9401C360.579 26.9401 355.902 28.0349 351.779 30.2491L352.726 32.0111ZM417.847 84.9201L417.384 85.8067L417.39 85.8094L417.847 84.9201ZM406.077 74.1401L405.221 74.6566L405.224 74.6627L406.077 74.1401ZM405.967 42.6801L405.111 42.1636L405.108 42.1676L405.967 42.6801ZM417.297 31.9001L417.771 32.7806L417.781 32.7749L417.297 31.9001ZM449.087 31.6801L448.612 32.5601L448.62 32.5646L448.629 32.5689L449.087 31.6801ZM460.197 42.2401L459.335 42.7465L459.338 42.7526L460.197 42.2401ZM464.157 60.9401L465.153 61.0306L465.154 61.0231L464.157 60.9401ZM463.937 63.2501V64.2501H464.842L464.932 63.3496L463.937 63.2501ZM415.867 63.2501H414.867V64.2501H415.867V63.2501ZM415.867 53.2401V52.2401H414.867V53.2401H415.867ZM454.917 53.2401L455.327 54.152L454.917 52.2401V53.2401ZM448.317 56.2101H447.317V57.7567L448.727 57.122L448.317 56.2101ZM441.277 42.9001L440.762 43.7576L440.773 43.764L440.784 43.7701L441.277 42.9001ZM425.767 42.9001L426.26 43.7702L426.269 43.7649L425.767 42.9001ZM420.597 48.2901L421.474 48.771L421.48 48.7593L420.597 48.2901ZM420.817 67.6501L419.944 68.1379L419.953 68.1533L419.962 68.1684L420.817 67.6501ZM426.867 73.2601L426.41 74.1494L426.425 74.1571L426.44 74.1643L426.867 73.2601ZM444.357 73.7001L443.99 72.7696L443.981 72.7736L444.357 73.7001ZM450.957 69.4101L451.692 68.7322L450.999 67.981L450.263 68.6898L450.957 69.4101ZM460.087 79.3101L460.837 79.9711L461.433 79.2948L460.822 78.6322L460.087 79.3101ZM449.857 86.4601L450.223 87.3909L450.23 87.388L450.237 87.3851L449.857 86.4601ZM435.667 87.8801C429.053 87.8801 423.274 86.5867 418.304 84.0308L417.39 85.8094C422.686 88.5335 428.788 89.8801 435.667 89.8801V87.8801ZM418.31 84.0335C413.398 81.4712 409.615 77.9989 406.93 73.6175L405.224 74.6627C408.112 79.3746 412.176 83.089 417.384 85.8067L418.31 84.0335ZM406.933 73.6236C404.249 69.173 402.897 64.1112 402.897 58.4101H400.897C400.897 64.4423 402.332 69.8672 405.221 74.6566L406.933 73.6236ZM402.897 58.4101C402.897 52.628 404.216 47.566 406.826 43.1926L405.108 42.1676C402.292 46.8875 400.897 52.3122 400.897 58.4101H402.897ZM406.823 43.1966C409.517 38.7305 413.162 35.2626 417.771 32.7806L416.823 31.0196C411.899 33.6709 407.99 37.3897 405.111 42.1636L406.823 43.1966ZM417.781 32.7749C422.385 30.2253 427.605 28.9401 433.467 28.9401V26.9401C427.302 26.9401 421.742 28.2949 416.812 31.0253L417.781 32.7749ZM433.467 28.9401C439.112 28.9401 444.153 30.1535 448.612 32.5601L449.562 30.8001C444.781 28.2201 439.409 26.9401 433.467 26.9401V28.9401ZM448.629 32.5689C453.151 34.9009 456.716 38.2871 459.335 42.7465L461.059 41.7337C458.252 36.9531 454.409 33.2993 449.545 30.7913L448.629 32.5689ZM459.338 42.7526C461.942 47.1153 463.267 52.3935 463.267 58.6301H465.267C465.267 52.1067 463.879 46.4583 461.056 41.7276L459.338 42.7526ZM463.267 58.6301C463.267 59.2549 463.232 59.9961 463.16 60.8571L465.154 61.0231C465.228 60.1241 465.267 59.3253 465.267 58.6301H463.267ZM463.161 60.8496C463.088 61.6535 463.015 62.4205 462.942 63.1506L464.932 63.3496C465.006 62.613 465.079 61.84 465.153 61.0306L463.161 60.8496ZM463.937 62.2501H415.867V64.2501H463.937V62.2501ZM416.867 63.2501V53.2401H414.867V63.2501H416.867ZM415.867 54.2401H454.917V52.2401H415.867V54.2401ZM454.507 52.3282L447.907 55.2982L448.727 57.122L455.327 54.152L454.507 52.3282ZM449.317 56.2101C449.317 52.9936 448.665 50.1454 447.324 47.6993L445.57 48.6609C446.722 50.7615 447.317 53.2666 447.317 56.2101H449.317ZM447.324 47.6993C445.99 45.2674 444.136 43.3707 441.77 42.0301L440.784 43.7701C442.818 44.9228 444.41 46.5461 445.57 48.6609L447.324 47.6993ZM441.791 42.0426C439.415 40.6166 436.665 39.9201 433.577 39.9201V41.9201C436.356 41.9201 438.739 42.5436 440.762 43.7576L441.791 42.0426ZM433.577 39.9201C430.488 39.9201 427.708 40.6168 425.265 42.0353L426.269 43.7649C428.373 42.5434 430.799 41.9201 433.577 41.9201V39.9201ZM425.274 42.0301C422.9 43.3754 421.045 45.3152 419.714 47.8209L421.48 48.7593C422.642 46.5716 424.234 44.9182 426.26 43.7702L425.274 42.0301ZM419.72 47.8093C418.377 50.2587 417.727 53.1448 417.727 56.4301H419.727C419.727 53.4088 420.324 50.8683 421.474 48.771L419.72 47.8093ZM417.727 56.4301V59.0701H419.727V56.4301H417.727ZM417.727 59.0701C417.727 62.445 418.457 65.477 419.944 68.1379L421.69 67.1623C420.39 64.8365 419.727 62.1485 419.727 59.0701H417.727ZM419.962 68.1684C421.526 70.7497 423.682 72.7466 426.41 74.1494L427.324 72.3708C424.919 71.1336 423.041 69.3905 421.672 67.1318L419.962 68.1684ZM426.44 74.1643C429.238 75.4857 432.469 76.1301 436.107 76.1301V74.1301C432.705 74.1301 429.776 73.5278 427.294 72.3559L426.44 74.1643ZM436.107 76.1301C439.359 76.1301 442.242 75.6388 444.733 74.6266L443.981 72.7736C441.779 73.6681 439.162 74.1301 436.107 74.1301V76.1301ZM444.723 74.6305C447.272 73.6265 449.582 72.1226 451.651 70.1304L450.263 68.6898C448.372 70.5109 446.282 71.8669 443.99 72.7696L444.723 74.6305ZM450.222 70.088L459.352 79.988L460.822 78.6322L451.692 68.7322L450.222 70.088ZM459.337 78.6491C456.733 81.6046 453.453 83.9019 449.477 85.5351L450.237 87.3851C454.474 85.6449 458.014 83.1756 460.837 79.9711L459.337 78.6491ZM449.491 85.5293C445.523 87.0883 440.921 87.8801 435.667 87.8801V89.8801C441.119 89.8801 445.978 89.0586 450.223 87.3909L449.491 85.5293Z" fill="white"/>
</g>
</svg>
