<svg width="494" height="78" viewBox="0 0 494 78" fill="none" xmlns="http://www.w3.org/2000/svg">
<path d="M0 77V0H17.82V77H0ZM70.8538 16.94C75.5471 16.94 79.7271 17.8933 83.3938 19.8C87.1338 21.6333 90.0671 24.4933 92.1938 28.38C94.3204 32.1933 95.3838 37.1067 95.3838 43.12V77H78.2238V45.76C78.2238 40.9933 77.1604 37.4733 75.0338 35.2C72.9804 32.9267 70.0471 31.79 66.2338 31.79C63.5204 31.79 61.0638 32.3767 58.8638 33.55C56.7371 34.65 55.0504 36.3733 53.8038 38.72C52.6304 41.0667 52.0438 44.0733 52.0438 47.74V77H34.8838V17.82H51.2738V34.21L48.1938 29.26C50.3204 25.3 53.3638 22.2567 57.3238 20.13C61.2838 18.0033 65.7938 16.94 70.8538 16.94ZM146.908 16.94C151.602 16.94 155.782 17.8933 159.448 19.8C163.188 21.6333 166.122 24.4933 168.248 28.38C170.375 32.1933 171.438 37.1067 171.438 43.12V77H154.278V45.76C154.278 40.9933 153.215 37.4733 151.088 35.2C149.035 32.9267 146.102 31.79 142.288 31.79C139.575 31.79 137.118 32.3767 134.918 33.55C132.792 34.65 131.105 36.3733 129.858 38.72C128.685 41.0667 128.098 44.0733 128.098 47.74V77H110.938V17.82H127.328V34.21L124.248 29.26C126.375 25.3 129.418 22.2567 133.378 20.13C137.338 18.0033 141.848 16.94 146.908 16.94ZM215.583 77.88C209.276 77.88 203.666 76.56 198.753 73.92C193.913 71.28 190.063 67.6867 187.203 63.14C184.416 58.52 183.023 53.2767 183.023 47.41C183.023 41.47 184.416 36.2267 187.203 31.68C190.063 27.06 193.913 23.4667 198.753 20.9C203.666 18.26 209.276 16.94 215.583 16.94C221.816 16.94 227.389 18.26 232.303 20.9C237.216 23.4667 241.066 27.0233 243.853 31.57C246.639 36.1167 248.033 41.3967 248.033 47.41C248.033 53.2767 246.639 58.52 243.853 63.14C241.066 67.6867 237.216 71.28 232.303 73.92C227.389 76.56 221.816 77.88 215.583 77.88ZM215.583 63.8C218.443 63.8 221.009 63.14 223.283 61.82C225.556 60.5 227.353 58.63 228.673 56.21C229.993 53.7167 230.653 50.7833 230.653 47.41C230.653 43.9633 229.993 41.03 228.673 38.61C227.353 36.19 225.556 34.32 223.283 33C221.009 31.68 218.443 31.02 215.583 31.02C212.723 31.02 210.156 31.68 207.883 33C205.609 34.32 203.776 36.19 202.383 38.61C201.063 41.03 200.403 43.9633 200.403 47.41C200.403 50.7833 201.063 53.7167 202.383 56.21C203.776 58.63 205.609 60.5 207.883 61.82C210.156 63.14 212.723 63.8 215.583 63.8ZM273.952 77L249.092 17.82H266.802L287.482 68.75H278.682L300.132 17.82H316.632L291.662 77H273.952ZM358 77V65.45L356.9 62.92V42.24C356.9 38.5733 355.763 35.7133 353.49 33.66C351.29 31.6067 347.88 30.58 343.26 30.58C340.107 30.58 336.99 31.0933 333.91 32.12C330.903 33.0733 328.337 34.3933 326.21 36.08L320.05 24.09C323.277 21.8167 327.163 20.0567 331.71 18.81C336.257 17.5633 340.877 16.94 345.57 16.94C354.59 16.94 361.593 19.0667 366.58 23.32C371.567 27.5733 374.06 34.21 374.06 43.23V77H358ZM339.96 77.88C335.34 77.88 331.38 77.11 328.08 75.57C324.78 73.9567 322.25 71.7933 320.49 69.08C318.73 66.3667 317.85 63.3233 317.85 59.95C317.85 56.43 318.693 53.35 320.38 50.71C322.14 48.07 324.89 46.0167 328.63 44.55C332.37 43.01 337.247 42.24 343.26 42.24H358.99V52.25H345.13C341.097 52.25 338.31 52.91 336.77 54.23C335.303 55.55 334.57 57.2 334.57 59.18C334.57 61.38 335.413 63.14 337.1 64.46C338.86 65.7067 341.243 66.33 344.25 66.33C347.11 66.33 349.677 65.67 351.95 64.35C354.223 62.9567 355.873 60.94 356.9 58.3L359.54 66.22C358.293 70.0333 356.02 72.93 352.72 74.91C349.42 76.89 345.167 77.88 339.96 77.88ZM413.791 77.88C406.824 77.88 401.397 76.12 397.511 72.6C393.624 69.0067 391.681 63.69 391.681 56.65V4.73001H408.841V56.43C408.841 58.9233 409.501 60.8667 410.821 62.26C412.141 63.58 413.937 64.24 416.211 64.24C418.924 64.24 421.234 63.5067 423.141 62.04L427.761 74.14C426.001 75.3867 423.874 76.34 421.381 77C418.961 77.5867 416.431 77.88 413.791 77.88ZM382.551 32.34V19.14H423.581V32.34H382.551ZM464.937 77.88C458.191 77.88 452.251 76.56 447.117 73.92C442.057 71.28 438.134 67.6867 435.347 63.14C432.561 58.52 431.167 53.2767 431.167 47.41C431.167 41.47 432.524 36.2267 435.237 31.68C438.024 27.06 441.801 23.4667 446.567 20.9C451.334 18.26 456.724 16.94 462.737 16.94C468.531 16.94 473.737 18.1867 478.357 20.68C483.051 23.1 486.754 26.62 489.467 31.24C492.181 35.7867 493.537 41.25 493.537 47.63C493.537 48.29 493.501 49.06 493.427 49.94C493.354 50.7467 493.281 51.5167 493.207 52.25H445.137V42.24H484.187L477.587 45.21C477.587 42.13 476.964 39.4533 475.717 37.18C474.471 34.9067 472.747 33.1467 470.547 31.9C468.347 30.58 465.781 29.92 462.847 29.92C459.914 29.92 457.311 30.58 455.037 31.9C452.837 33.1467 451.114 34.9433 449.867 37.29C448.621 39.5633 447.997 42.2767 447.997 45.43V48.07C447.997 51.2967 448.694 54.1567 450.087 56.65C451.554 59.07 453.571 60.94 456.137 62.26C458.777 63.5067 461.857 64.13 465.377 64.13C468.531 64.13 471.281 63.6533 473.627 62.7C476.047 61.7467 478.247 60.3167 480.227 58.41L489.357 68.31C486.644 71.39 483.234 73.7733 479.127 75.46C475.021 77.0733 470.291 77.88 464.937 77.88Z" fill="#29D48C"/>
</svg>
