<svg width="508" height="86" viewBox="0 0 508 86" fill="none" xmlns="http://www.w3.org/2000/svg">
<mask id="mask0_184134_9" style="mask-type:luminance" maskUnits="userSpaceOnUse" x="0" y="0" width="508" height="86">
<path d="M508 0H0V86H508V0Z" fill="white"/>
<path d="M1.12988 84V7H18.9499V84H1.12988ZM71.9837 23.94C76.677 23.94 80.857 24.8933 84.5237 26.8C88.2637 28.6333 91.197 31.4933 93.3237 35.38C95.4503 39.1933 96.5137 44.1067 96.5137 50.12V84H79.3537V52.76C79.3537 47.9933 78.2903 44.4733 76.1637 42.2C74.1103 39.9267 71.177 38.79 67.3637 38.79C64.6503 38.79 62.1937 39.3767 59.9937 40.55C57.867 41.65 56.1803 43.3733 54.9337 45.72C53.7603 48.0667 53.1737 51.0733 53.1737 54.74V84H36.0137V24.82H52.4037V41.21L49.3237 36.26C51.4503 32.3 54.4937 29.2567 58.4537 27.13C62.4137 25.0033 66.9237 23.94 71.9837 23.94ZM136.268 84.88C129.302 84.88 123.875 83.12 119.988 79.6C116.102 76.0067 114.158 70.69 114.158 63.65V11.73H131.318V63.43C131.318 65.9233 131.978 67.8667 133.298 69.26C134.618 70.58 136.415 71.24 138.688 71.24C141.402 71.24 143.712 70.5067 145.618 69.04L150.238 81.14C148.478 82.3867 146.352 83.34 143.858 84C141.438 84.5867 138.908 84.88 136.268 84.88ZM105.028 39.34V26.14H146.058V39.34H105.028ZM187.415 84.88C180.668 84.88 174.728 83.56 169.595 80.92C164.535 78.28 160.612 74.6867 157.825 70.14C155.038 65.52 153.645 60.2767 153.645 54.41C153.645 48.47 155.002 43.2267 157.715 38.68C160.502 34.06 164.278 30.4667 169.045 27.9C173.812 25.26 179.202 23.94 185.215 23.94C191.008 23.94 196.215 25.1867 200.835 27.68C205.528 30.1 209.232 33.62 211.945 38.24C214.658 42.7867 216.015 48.25 216.015 54.63C216.015 55.29 215.978 56.06 215.905 56.94C215.832 57.7467 215.758 58.5167 215.685 59.25H167.615V49.24H206.665L200.065 52.21C200.065 49.13 199.442 46.4533 198.195 44.18C196.948 41.9067 195.225 40.1467 193.025 38.9C190.825 37.58 188.258 36.92 185.325 36.92C182.392 36.92 179.788 37.58 177.515 38.9C175.315 40.1467 173.592 41.9433 172.345 44.29C171.098 46.5633 170.475 49.2767 170.475 52.43V55.07C170.475 58.2967 171.172 61.1567 172.565 63.65C174.032 66.07 176.048 67.94 178.615 69.26C181.255 70.5067 184.335 71.13 187.855 71.13C191.008 71.13 193.758 70.6533 196.105 69.7C198.525 68.7467 200.725 67.3167 202.705 65.41L211.835 75.31C209.122 78.39 205.712 80.7733 201.605 82.46C197.498 84.0733 192.768 84.88 187.415 84.88ZM227.44 84V24.82H243.83V41.54L241.52 36.7C243.28 32.52 246.103 29.3667 249.99 27.24C253.876 25.04 258.606 23.94 264.18 23.94V39.78C263.446 39.7067 262.786 39.67 262.2 39.67C261.613 39.5967 260.99 39.56 260.33 39.56C255.636 39.56 251.823 40.9167 248.89 43.63C246.03 46.27 244.6 50.4133 244.6 56.06V84H227.44ZM276.903 84V23.5C276.903 16.8267 278.883 11.51 282.843 7.55C286.803 3.51667 292.449 1.5 299.783 1.5C302.276 1.5 304.659 1.75667 306.933 2.27001C309.279 2.78334 311.259 3.59 312.873 4.69001L308.363 17.12C307.409 16.46 306.346 15.9467 305.173 15.58C303.999 15.2133 302.753 15.03 301.433 15.03C298.939 15.03 296.996 15.7633 295.603 17.23C294.283 18.6233 293.623 20.75 293.623 23.61V29.11L294.063 36.48V84H276.903ZM267.773 39.34V26.14H308.803V39.34H267.773ZM352.577 84V72.45L351.477 69.92V49.24C351.477 45.5733 350.341 42.7133 348.067 40.66C345.867 38.6067 342.457 37.58 337.837 37.58C334.684 37.58 331.567 38.0933 328.487 39.12C325.481 40.0733 322.914 41.3933 320.787 43.08L314.627 31.09C317.854 28.8167 321.741 27.0567 326.287 25.81C330.834 24.5633 335.454 23.94 340.147 23.94C349.167 23.94 356.171 26.0667 361.157 30.32C366.144 34.5733 368.637 41.21 368.637 50.23V84H352.577ZM334.537 84.88C329.917 84.88 325.957 84.11 322.657 82.57C319.357 80.9567 316.827 78.7933 315.067 76.08C313.307 73.3667 312.427 70.3233 312.427 66.95C312.427 63.43 313.271 60.35 314.957 57.71C316.717 55.07 319.467 53.0167 323.207 51.55C326.947 50.01 331.824 49.24 337.837 49.24H353.567V59.25H339.707C335.674 59.25 332.887 59.91 331.347 61.23C329.881 62.55 329.147 64.2 329.147 66.18C329.147 68.38 329.991 70.14 331.677 71.46C333.437 72.7067 335.821 73.33 338.827 73.33C341.687 73.33 344.254 72.67 346.527 71.35C348.801 69.9567 350.451 67.94 351.477 65.3L354.117 73.22C352.871 77.0333 350.597 79.93 347.297 81.91C343.997 83.89 339.744 84.88 334.537 84.88ZM413.198 84.88C406.818 84.88 401.134 83.5967 396.148 81.03C391.161 78.39 387.238 74.76 384.378 70.14C381.591 65.52 380.198 60.2767 380.198 54.41C380.198 48.47 381.591 43.2267 384.378 38.68C387.238 34.06 391.161 30.4667 396.148 27.9C401.134 25.26 406.818 23.94 413.198 23.94C419.431 23.94 424.858 25.26 429.478 27.9C434.098 30.4667 437.508 34.17 439.708 39.01L426.398 46.16C424.858 43.3733 422.914 41.32 420.568 40C418.294 38.68 415.801 38.02 413.088 38.02C410.154 38.02 407.514 38.68 405.168 40C402.821 41.32 400.951 43.19 399.558 45.61C398.238 48.03 397.578 50.9633 397.578 54.41C397.578 57.8567 398.238 60.79 399.558 63.21C400.951 65.63 402.821 67.5 405.168 68.82C407.514 70.14 410.154 70.8 413.088 70.8C415.801 70.8 418.294 70.1767 420.568 68.93C422.914 67.61 424.858 65.52 426.398 62.66L439.708 69.92C437.508 74.6867 434.098 78.39 429.478 81.03C424.858 83.5967 419.431 84.88 413.198 84.88ZM478.206 84.88C471.459 84.88 465.519 83.56 460.386 80.92C455.326 78.28 451.403 74.6867 448.616 70.14C445.829 65.52 444.436 60.2767 444.436 54.41C444.436 48.47 445.793 43.2267 448.506 38.68C451.293 34.06 455.069 30.4667 459.836 27.9C464.603 25.26 469.993 23.94 476.006 23.94C481.799 23.94 487.006 25.1867 491.626 27.68C496.319 30.1 500.023 33.62 502.736 38.24C505.449 42.7867 506.806 48.25 506.806 54.63C506.806 55.29 506.769 56.06 506.696 56.94C506.623 57.7467 506.549 58.5167 506.476 59.25H458.406V49.24H497.456L490.856 52.21C490.856 49.13 490.233 46.4533 488.986 44.18C487.739 41.9067 486.016 40.1467 483.816 38.9C481.616 37.58 479.049 36.92 476.116 36.92C473.183 36.92 470.579 37.58 468.306 38.9C466.106 40.1467 464.383 41.9433 463.136 44.29C461.889 46.5633 461.266 49.2767 461.266 52.43V55.07C461.266 58.2967 461.963 61.1567 463.356 63.65C464.823 66.07 466.839 67.94 469.406 69.26C472.046 70.5067 475.126 71.13 478.646 71.13C481.799 71.13 484.549 70.6533 486.896 69.7C489.316 68.7467 491.516 67.3167 493.496 65.41L502.626 75.31C499.913 78.39 496.503 80.7733 492.396 82.46C488.289 84.0733 483.559 84.88 478.206 84.88Z" fill="black"/>
</mask>
<g mask="url(#mask0_184134_9)">
<path d="M1.12988 84H0.129883V85H1.12988V84ZM1.12988 7V6H0.129883V7H1.12988ZM18.9499 7H19.9499V6H18.9499V7ZM18.9499 84V85H19.9499V84H18.9499ZM2.12988 84V7H0.129883V84H2.12988ZM1.12988 8H18.9499V6H1.12988V8ZM17.9499 7V84H19.9499V7H17.9499ZM18.9499 83H1.12988V85H18.9499V83ZM84.5237 26.8L84.0623 27.6872L84.0728 27.6927L84.0835 27.6979L84.5237 26.8ZM93.3237 35.38L92.4464 35.86L92.4503 35.8671L93.3237 35.38ZM96.5137 84V85H97.5137V84H96.5137ZM79.3537 84H78.3537V85H79.3537V84ZM76.1637 42.2L75.4215 42.8703L75.4274 42.8768L75.4334 42.8832L76.1637 42.2ZM59.9937 40.55L60.4531 41.4383L60.4642 41.4324L59.9937 40.55ZM54.9337 45.72L54.0505 45.2508L54.0447 45.2617L54.0392 45.2728L54.9337 45.72ZM53.1737 84V85H54.1737V84H53.1737ZM36.0137 84H35.0137V85H36.0137V84ZM36.0137 24.82V23.82H35.0137V24.82H36.0137ZM52.4037 24.82H53.4037V23.82H52.4037V24.82ZM52.4037 41.21L51.5546 41.7383L53.4037 44.71V41.21H52.4037ZM49.3237 36.26L48.4427 35.7869L48.1688 36.2968L48.4746 36.7883L49.3237 36.26ZM71.9837 24.94C76.5384 24.94 80.5564 25.8642 84.0623 27.6872L84.985 25.9128C81.1575 23.9225 76.8156 22.94 71.9837 22.94V24.94ZM84.0835 27.6979C87.626 29.4345 90.4121 32.1422 92.4464 35.86L94.2009 34.9C91.9818 30.8444 88.9013 27.8322 84.9638 25.9021L84.0835 27.6979ZM92.4503 35.8671C94.4684 39.4858 95.5137 44.2159 95.5137 50.12H97.5137C97.5137 43.9975 96.4322 38.9008 94.197 34.8929L92.4503 35.8671ZM95.5137 50.12V84H97.5137V50.12H95.5137ZM96.5137 83H79.3537V85H96.5137V83ZM80.3537 84V52.76H78.3537V84H80.3537ZM80.3537 52.76C80.3537 47.8704 79.2663 44.0528 76.8939 41.5168L75.4334 42.8832C77.3143 44.8938 78.3537 48.1162 78.3537 52.76H80.3537ZM76.9058 41.5297C74.6181 38.9969 71.3854 37.79 67.3637 37.79V39.79C70.9686 39.79 73.6026 40.8564 75.4215 42.8703L76.9058 41.5297ZM67.3637 37.79C64.501 37.79 61.8804 38.4104 59.5231 39.6676L60.4642 41.4324C62.5069 40.3429 64.7996 39.79 67.3637 39.79V37.79ZM59.5342 39.6618C57.2074 40.8653 55.3816 42.7452 54.0505 45.2508L55.8168 46.1892C56.979 44.0014 58.5266 42.4348 60.4531 41.4383L59.5342 39.6618ZM54.0392 45.2728C52.7745 47.8023 52.1737 50.9761 52.1737 54.74H54.1737C54.1737 51.1706 54.7462 48.3311 55.8281 46.1672L54.0392 45.2728ZM52.1737 54.74V84H54.1737V54.74H52.1737ZM53.1737 83H36.0137V85H53.1737V83ZM37.0137 84V24.82H35.0137V84H37.0137ZM36.0137 25.82H52.4037V23.82H36.0137V25.82ZM51.4037 24.82V41.21H53.4037V24.82H51.4037ZM53.2527 40.6817L50.1727 35.7317L48.4746 36.7883L51.5546 41.7383L53.2527 40.6817ZM50.2046 36.7331C52.2384 32.9462 55.1398 30.0447 58.9268 28.011L57.9805 26.249C53.8475 28.4686 50.6623 31.6538 48.4427 35.7869L50.2046 36.7331ZM58.9268 28.011C62.7238 25.9718 67.0677 24.94 71.9837 24.94V22.94C66.7796 22.94 62.1035 24.0348 57.9805 26.249L58.9268 28.011ZM119.988 79.6L119.31 80.3343L119.317 80.3412L119.988 79.6ZM114.158 11.73V10.73H113.158V11.73H114.158ZM131.318 11.73H132.318V10.73H131.318V11.73ZM133.298 69.26L132.572 69.9477L132.582 69.9576L132.591 69.9671L133.298 69.26ZM145.618 69.04L146.553 68.6833L146.073 67.4283L145.009 68.2474L145.618 69.04ZM150.238 81.14L150.816 81.956L151.449 81.5078L151.173 80.7833L150.238 81.14ZM143.858 84L144.094 84.9719L144.104 84.9694L144.114 84.9667L143.858 84ZM105.028 39.34H104.028V40.34H105.028V39.34ZM105.028 26.14V25.14H104.028V26.14H105.028ZM146.058 26.14H147.058V25.14H146.058V26.14ZM146.058 39.34V40.34H147.058V39.34H146.058ZM136.268 83.88C129.467 83.88 124.309 82.1638 120.66 78.8588L119.317 80.3412C123.441 84.0762 129.137 85.88 136.268 85.88V83.88ZM120.667 78.8657C117.047 75.5184 115.158 70.5075 115.158 63.65H113.158C113.158 70.8725 115.157 76.4949 119.31 80.3343L120.667 78.8657ZM115.158 63.65V11.73H113.158V63.65H115.158ZM114.158 12.73H131.318V10.73H114.158V12.73ZM130.318 11.73V63.43H132.318V11.73H130.318ZM130.318 63.43C130.318 66.1001 131.029 68.3182 132.572 69.9477L134.024 68.5723C132.928 67.4151 132.318 65.7466 132.318 63.43H130.318ZM132.591 69.9671C134.138 71.5141 136.211 72.24 138.688 72.24V70.24C136.619 70.24 135.099 69.6459 134.006 68.5529L132.591 69.9671ZM138.688 72.24C141.593 72.24 144.125 71.4508 146.228 69.8326L145.009 68.2474C143.299 69.5625 141.211 70.24 138.688 70.24V72.24ZM144.684 69.3967L149.304 81.4967L151.173 80.7833L146.553 68.6833L144.684 69.3967ZM149.66 80.324C148.015 81.4895 146.002 82.398 143.603 83.0333L144.114 84.9667C146.701 84.282 148.942 83.2838 150.816 81.956L149.66 80.324ZM143.623 83.0281C141.284 83.595 138.834 83.88 136.268 83.88V85.88C138.983 85.88 141.592 85.5783 144.094 84.9719L143.623 83.0281ZM106.028 39.34V26.14H104.028V39.34H106.028ZM105.028 27.14H146.058V25.14H105.028V27.14ZM145.058 26.14V39.34H147.058V26.14H145.058ZM146.058 38.34H105.028V40.34H146.058V38.34ZM169.595 80.92L169.132 81.8066L169.138 81.8093L169.595 80.92ZM157.825 70.14L156.969 70.6565L156.972 70.6626L157.825 70.14ZM157.715 38.68L156.859 38.1635L156.856 38.1675L157.715 38.68ZM169.045 27.9L169.519 28.7805L169.529 28.7748L169.045 27.9ZM200.835 27.68L200.36 28.56L200.368 28.5645L200.377 28.5688L200.835 27.68ZM211.945 38.24L211.083 38.7464L211.086 38.7525L211.945 38.24ZM215.905 56.94L216.901 57.0305L216.902 57.023L215.905 56.94ZM215.685 59.25V60.25H216.59L216.68 59.3495L215.685 59.25ZM167.615 59.25H166.615V60.25H167.615V59.25ZM167.615 49.24V48.24H166.615V49.24H167.615ZM206.665 49.24L207.075 50.1519L206.665 48.24V49.24ZM200.065 52.21H199.065V53.7566L200.475 53.1219L200.065 52.21ZM193.025 38.9L192.511 39.7575L192.521 39.7639L192.532 39.77L193.025 38.9ZM177.515 38.9L178.008 39.7701L178.017 39.7648L177.515 38.9ZM172.345 44.29L173.222 44.7709L173.228 44.7592L172.345 44.29ZM172.565 63.65L171.692 64.1378L171.701 64.1532L171.71 64.1683L172.565 63.65ZM178.615 69.26L178.158 70.1493L178.173 70.157L178.188 70.1642L178.615 69.26ZM196.105 69.7L195.738 68.7695L195.729 68.7735L196.105 69.7ZM202.705 65.41L203.44 64.7321L202.747 63.9809L202.011 64.6897L202.705 65.41ZM211.835 75.31L212.585 75.971L213.181 75.2947L212.57 74.6321L211.835 75.31ZM201.605 82.46L201.971 83.3908L201.978 83.3879L201.985 83.385L201.605 82.46ZM187.415 83.88C180.801 83.88 175.022 82.5866 170.052 80.0307L169.138 81.8093C174.435 84.5334 180.536 85.88 187.415 85.88V83.88ZM170.058 80.0334C165.146 77.4711 161.363 73.9988 158.678 69.6174L156.972 70.6626C159.86 75.3745 163.924 79.0889 169.132 81.8066L170.058 80.0334ZM158.681 69.6235C155.997 65.1729 154.645 60.1111 154.645 54.41H152.645C152.645 60.4422 154.08 65.8671 156.969 70.6565L158.681 69.6235ZM154.645 54.41C154.645 48.6279 155.964 43.5659 158.574 39.1925L156.856 38.1675C154.04 42.8874 152.645 48.3121 152.645 54.41H154.645ZM158.571 39.1965C161.265 34.7304 164.91 31.2625 169.519 28.7805L168.571 27.0195C163.647 29.6708 159.738 33.3896 156.859 38.1635L158.571 39.1965ZM169.529 28.7748C174.133 26.2252 179.353 24.94 185.215 24.94V22.94C179.05 22.94 173.49 24.2948 168.561 27.0252L169.529 28.7748ZM185.215 24.94C190.86 24.94 195.901 26.1534 200.36 28.56L201.31 26.8C196.529 24.22 191.157 22.94 185.215 22.94V24.94ZM200.377 28.5688C204.899 30.9008 208.464 34.287 211.083 38.7464L212.807 37.7336C210 32.953 206.157 29.2992 201.293 26.7912L200.377 28.5688ZM211.086 38.7525C213.69 43.1152 215.015 48.3934 215.015 54.63H217.015C217.015 48.1066 215.627 42.4582 212.804 37.7275L211.086 38.7525ZM215.015 54.63C215.015 55.2548 214.98 55.996 214.908 56.857L216.902 57.023C216.976 56.124 217.015 55.3252 217.015 54.63H215.015ZM214.909 56.8495C214.836 57.6534 214.763 58.4204 214.69 59.1505L216.68 59.3495C216.754 58.6129 216.827 57.8399 216.901 57.0305L214.909 56.8495ZM215.685 58.25H167.615V60.25H215.685V58.25ZM168.615 59.25V49.24H166.615V59.25H168.615ZM167.615 50.24H206.665V48.24H167.615V50.24ZM206.255 48.3281L199.655 51.2981L200.475 53.1219L207.075 50.1519L206.255 48.3281ZM201.065 52.21C201.065 48.9935 200.413 46.1453 199.072 43.6992L197.318 44.6608C198.47 46.7614 199.065 49.2665 199.065 52.21H201.065ZM199.072 43.6992C197.738 41.2673 195.884 39.3706 193.518 38.03L192.532 39.77C194.566 40.9227 196.158 42.546 197.318 44.6608L199.072 43.6992ZM193.539 38.0425C191.163 36.6165 188.413 35.92 185.325 35.92V37.92C188.104 37.92 190.487 38.5435 192.511 39.7575L193.539 38.0425ZM185.325 35.92C182.236 35.92 179.456 36.6167 177.013 38.0352L178.017 39.7648C180.121 38.5433 182.547 37.92 185.325 37.92V35.92ZM177.022 38.03C174.648 39.3753 172.793 41.3151 171.462 43.8208L173.228 44.7592C174.39 42.5715 175.982 40.9181 178.008 39.7701L177.022 38.03ZM171.468 43.8092C170.125 46.2586 169.475 49.1447 169.475 52.43H171.475C171.475 49.4087 172.072 46.8682 173.222 44.7709L171.468 43.8092ZM169.475 52.43V55.07H171.475V52.43H169.475ZM169.475 55.07C169.475 58.4449 170.205 61.4769 171.692 64.1378L173.438 63.1622C172.138 60.8364 171.475 58.1484 171.475 55.07H169.475ZM171.71 64.1683C173.274 66.7496 175.43 68.7465 178.158 70.1493L179.072 68.3707C176.667 67.1335 174.789 65.3904 173.42 63.1317L171.71 64.1683ZM178.188 70.1642C180.986 71.4856 184.217 72.13 187.855 72.13V70.13C184.453 70.13 181.524 69.5277 179.042 68.3558L178.188 70.1642ZM187.855 72.13C191.107 72.13 193.99 71.6387 196.481 70.6265L195.729 68.7735C193.527 69.668 190.91 70.13 187.855 70.13V72.13ZM196.472 70.6304C199.02 69.6264 201.33 68.1225 203.399 66.1303L202.011 64.6897C200.12 66.5108 198.03 67.8668 195.738 68.7695L196.472 70.6304ZM201.97 66.0879L211.1 75.9879L212.57 74.6321L203.44 64.7321L201.97 66.0879ZM211.085 74.649C208.481 77.6045 205.201 79.9018 201.225 81.535L201.985 83.385C206.222 81.6448 209.762 79.1755 212.585 75.971L211.085 74.649ZM201.239 81.5292C197.271 83.0882 192.669 83.88 187.415 83.88V85.88C192.868 85.88 197.726 85.0585 201.971 83.3908L201.239 81.5292ZM227.44 84H226.44V85H227.44V84ZM227.44 24.82V23.82H226.44V24.82H227.44ZM243.83 24.82H244.83V23.82H243.83V24.82ZM243.83 41.54L242.927 41.9707L244.83 41.54H243.83ZM241.52 36.7L240.598 36.3119L240.424 36.7256L240.617 37.1307L241.52 36.7ZM249.99 27.24L250.47 28.1173L250.476 28.1138L250.482 28.1103L249.99 27.24ZM264.18 23.94H265.18V22.94H264.18V23.94ZM264.18 39.78L264.08 40.775L265.18 40.885V39.78H264.18ZM262.2 39.67L262.075 40.6623L262.137 40.67H262.2V39.67ZM248.89 43.63L249.568 44.3648L249.569 44.3641L248.89 43.63ZM244.6 84V85H245.6V84H244.6ZM228.44 84V24.82H226.44V84H228.44ZM227.44 25.82H243.83V23.82H227.44V25.82ZM242.83 24.82V41.54H244.83V24.82H242.83ZM244.732 41.1093L242.422 36.2693L240.617 37.1307L242.927 41.9707L244.732 41.1093ZM242.441 37.0881C244.116 33.111 246.786 30.1327 250.47 28.1173L249.51 26.3627C245.42 28.6006 242.443 31.929 240.598 36.3119L242.441 37.0881ZM250.482 28.1103C254.186 26.0139 258.737 24.94 264.18 24.94V22.94C258.476 22.94 253.567 24.0661 249.497 26.3697L250.482 28.1103ZM263.18 23.94V39.78H265.18V23.94H263.18ZM264.279 38.785C263.521 38.7091 262.827 38.67 262.2 38.67V40.67C262.746 40.67 263.372 40.7042 264.08 40.775L264.279 38.785ZM262.324 38.6777C261.691 38.5987 261.026 38.56 260.33 38.56V40.56C260.953 40.56 261.534 40.5946 262.075 40.6623L262.324 38.6777ZM260.33 38.56C255.431 38.56 251.36 39.9823 248.21 42.8959L249.569 44.3641C252.285 41.851 255.841 40.56 260.33 40.56V38.56ZM248.211 42.8952C245.068 45.7965 243.6 50.2618 243.6 56.06H245.6C245.6 50.5649 246.991 46.7435 249.568 44.3648L248.211 42.8952ZM243.6 56.06V84H245.6V56.06H243.6ZM244.6 83H227.44V85H244.6V83ZM276.903 84H275.903V85H276.903V84ZM282.843 7.55L283.55 8.25714L283.556 8.25059L282.843 7.55ZM306.933 2.27001L306.712 3.24547L306.719 3.24691L306.933 2.27001ZM312.873 4.69001L313.813 5.03108L314.077 4.30119L313.436 3.86378L312.873 4.69001ZM308.363 17.12L307.793 17.9422L308.86 18.6807L309.303 17.4611L308.363 17.12ZM295.603 17.23L294.878 16.5412L294.877 16.5423L295.603 17.23ZM293.623 29.11H292.623V29.1398L292.624 29.1696L293.623 29.11ZM294.063 36.48H295.063V36.4502L295.061 36.4204L294.063 36.48ZM294.063 84V85H295.063V84H294.063ZM267.773 39.34H266.773V40.34H267.773V39.34ZM267.773 26.14V25.14H266.773V26.14H267.773ZM308.803 26.14H309.803V25.14H308.803V26.14ZM308.803 39.34V40.34H309.803V39.34H308.803ZM277.903 84V23.5H275.903V84H277.903ZM277.903 23.5C277.903 17.0374 279.813 11.9942 283.55 8.25714L282.135 6.8429C277.953 11.0257 275.903 16.616 275.903 23.5H277.903ZM283.556 8.25059C287.277 4.46112 292.634 2.5 299.783 2.5V0.5C292.264 0.5 286.328 2.57222 282.129 6.84941L283.556 8.25059ZM299.783 2.5C302.207 2.5 304.516 2.74955 306.712 3.24547L307.153 1.29456C304.802 0.763812 302.345 0.5 299.783 0.5V2.5ZM306.719 3.24691C308.968 3.73898 310.823 4.5029 312.309 5.51623L313.436 3.86378C311.695 2.67711 309.59 1.8277 307.146 1.2931L306.719 3.24691ZM311.933 4.34893L307.423 16.7789L309.303 17.4611L313.813 5.03108L311.933 4.34893ZM308.932 16.2978C307.89 15.5769 306.735 15.0205 305.471 14.6255L304.874 16.5345C305.957 16.8728 306.928 17.3431 307.793 17.9422L308.932 16.2978ZM305.471 14.6255C304.194 14.2265 302.846 14.03 301.433 14.03V16.03C302.659 16.03 303.804 16.2001 304.874 16.5345L305.471 14.6255ZM301.433 14.03C298.733 14.03 296.502 14.8313 294.878 16.5412L296.328 17.9187C297.49 16.6954 299.145 16.03 301.433 16.03V14.03ZM294.877 16.5423C293.311 18.1948 292.623 20.6174 292.623 23.61H294.623C294.623 20.8826 295.254 19.0519 296.329 17.9177L294.877 16.5423ZM292.623 23.61V29.11H294.623V23.61H292.623ZM292.624 29.1696L293.064 36.5396L295.061 36.4204L294.621 29.0504L292.624 29.1696ZM293.063 36.48V84H295.063V36.48H293.063ZM294.063 83H276.903V85H294.063V83ZM268.773 39.34V26.14H266.773V39.34H268.773ZM267.773 27.14H308.803V25.14H267.773V27.14ZM307.803 26.14V39.34H309.803V26.14H307.803ZM308.803 38.34H267.773V40.34H308.803V38.34ZM352.577 84H351.577V85H352.577V84ZM352.577 72.45H353.577V72.242L353.494 72.0513L352.577 72.45ZM351.477 69.92H350.477V70.128L350.56 70.3187L351.477 69.92ZM348.067 40.66L347.385 41.3911L347.391 41.3966L347.397 41.4021L348.067 40.66ZM328.487 39.12L328.79 40.0732L328.797 40.071L328.804 40.0687L328.487 39.12ZM320.787 43.08L319.898 43.537L320.455 44.6203L321.409 43.8635L320.787 43.08ZM314.627 31.09L314.051 30.2725L313.341 30.7734L313.738 31.547L314.627 31.09ZM368.637 84V85H369.637V84H368.637ZM322.657 82.57L322.218 83.4684L322.226 83.4724L322.235 83.4762L322.657 82.57ZM314.957 57.71L314.125 57.1553L314.12 57.1634L314.115 57.1716L314.957 57.71ZM323.207 51.55L323.573 52.481L323.58 52.4779L323.588 52.4747L323.207 51.55ZM353.567 49.24H354.567V48.24H353.567V49.24ZM353.567 59.25V60.25H354.567V59.25H353.567ZM331.347 61.23L330.697 60.4707L330.687 60.4786L330.678 60.4867L331.347 61.23ZM331.677 71.46L331.061 72.2475L331.08 72.2622L331.099 72.276L331.677 71.46ZM346.527 71.35L347.03 72.2148L347.04 72.2088L347.05 72.2026L346.527 71.35ZM351.477 65.3L352.426 64.9838L351.55 62.3549L350.545 64.9376L351.477 65.3ZM354.117 73.22L355.068 73.5307L355.171 73.217L355.066 72.9038L354.117 73.22ZM353.577 84V72.45H351.577V84H353.577ZM353.494 72.0513L352.394 69.5213L350.56 70.3187L351.66 72.8487L353.494 72.0513ZM352.477 69.92V49.24H350.477V69.92H352.477ZM352.477 49.24C352.477 45.3511 351.262 42.198 348.738 39.9179L347.397 41.4021C349.419 43.2287 350.477 45.7955 350.477 49.24H352.477ZM348.75 39.9289C346.287 37.6302 342.579 36.58 337.837 36.58V38.58C342.336 38.58 345.448 39.5831 347.385 41.3911L348.75 39.9289ZM337.837 36.58C334.573 36.58 331.35 37.1117 328.171 38.1713L328.804 40.0687C331.785 39.075 334.795 38.58 337.837 38.58V36.58ZM328.185 38.1668C325.081 39.151 322.402 40.5232 320.166 42.2965L321.409 43.8635C323.426 42.2635 325.88 40.9957 328.79 40.0732L328.185 38.1668ZM321.677 42.623L315.517 30.633L313.738 31.547L319.898 43.537L321.677 42.623ZM315.203 31.9075C318.319 29.7123 322.096 27.9963 326.552 26.7744L326.023 24.8456C321.386 26.1171 317.389 27.921 314.051 30.2725L315.203 31.9075ZM326.552 26.7744C331.013 25.5513 335.544 24.94 340.147 24.94V22.94C335.364 22.94 330.655 23.5754 326.023 24.8456L326.552 26.7744ZM340.147 24.94C349.019 24.94 355.761 27.0313 360.508 31.0808L361.806 29.5592C356.581 25.102 349.316 22.94 340.147 22.94V24.94ZM360.508 31.0808C365.197 35.0802 367.637 41.3873 367.637 50.23H369.637C369.637 41.0327 367.091 34.0664 361.806 29.5592L360.508 31.0808ZM367.637 50.23V84H369.637V50.23H367.637ZM368.637 83H352.577V85H368.637V83ZM334.537 83.88C330.026 83.88 326.217 83.1278 323.08 81.6638L322.235 83.4762C325.698 85.0922 329.809 85.88 334.537 85.88V83.88ZM323.097 81.6716C319.937 80.1269 317.555 78.0772 315.906 75.5358L314.228 76.6242C316.1 79.5094 318.778 81.7865 322.218 83.4684L323.097 81.6716ZM315.906 75.5358C314.256 72.9917 313.427 70.1389 313.427 66.95H311.427C311.427 70.5077 312.359 73.7416 314.228 76.6242L315.906 75.5358ZM313.427 66.95C313.427 63.5965 314.229 60.7083 315.8 58.2484L314.115 57.1716C312.313 59.9917 311.427 63.2635 311.427 66.95H313.427ZM315.789 58.2647C317.409 55.8353 319.972 53.8929 323.573 52.481L322.842 50.619C318.963 52.1405 316.026 54.3047 314.125 57.1553L315.789 58.2647ZM323.588 52.4747C327.164 51.0025 331.897 50.24 337.837 50.24V48.24C331.751 48.24 326.731 49.0175 322.827 50.6253L323.588 52.4747ZM337.837 50.24H353.567V48.24H337.837V50.24ZM352.567 49.24V59.25H354.567V49.24H352.567ZM353.567 58.25H339.707V60.25H353.567V58.25ZM339.707 58.25C335.636 58.25 332.527 58.9015 330.697 60.4707L331.998 61.9893C333.247 60.9185 335.712 60.25 339.707 60.25V58.25ZM330.678 60.4867C329 61.9971 328.147 63.9176 328.147 66.18H330.147C330.147 64.4824 330.761 63.1029 332.016 61.9733L330.678 60.4867ZM328.147 66.18C328.147 68.6778 329.125 70.732 331.061 72.2475L332.294 70.6725C330.857 69.548 330.147 68.0822 330.147 66.18H328.147ZM331.099 72.276C333.083 73.6812 335.693 74.33 338.827 74.33V72.33C335.949 72.33 333.792 71.7321 332.255 70.644L331.099 72.276ZM338.827 74.33C341.848 74.33 344.59 73.6311 347.03 72.2148L346.025 70.4852C343.918 71.7089 341.527 72.33 338.827 72.33V74.33ZM347.05 72.2026C349.522 70.6877 351.309 68.4926 352.409 65.6624L350.545 64.9376C349.593 67.3874 348.08 69.2257 346.005 70.4974L347.05 72.2026ZM350.529 65.6162L353.169 73.5362L355.066 72.9038L352.426 64.9838L350.529 65.6162ZM353.167 72.9093C351.992 76.5044 349.867 79.202 346.783 81.0525L347.812 82.7675C351.328 80.658 353.75 77.5622 355.068 73.5307L353.167 72.9093ZM346.783 81.0525C343.684 82.9119 339.625 83.88 334.537 83.88V85.88C339.864 85.88 344.311 84.8681 347.812 82.7675L346.783 81.0525ZM396.148 81.03L395.68 81.9138L395.69 81.9191L396.148 81.03ZM384.378 70.14L383.521 70.6565L383.527 70.6664L384.378 70.14ZM384.378 38.68L383.527 38.1536L383.525 38.1574L384.378 38.68ZM396.148 27.9L396.605 28.7892L396.616 28.7838L396.148 27.9ZM429.478 27.9L428.982 28.7683L428.992 28.7742L429.478 27.9ZM439.708 39.01L440.181 39.8909L441.005 39.4481L440.618 38.5962L439.708 39.01ZM426.398 46.16L425.522 46.6437L426 47.5086L426.871 47.0409L426.398 46.16ZM420.568 40L420.066 40.8649L420.077 40.8716L420.568 40ZM399.558 45.61L398.691 45.111L398.685 45.121L398.68 45.1311L399.558 45.61ZM399.558 63.21L398.68 63.6889L398.685 63.699L398.691 63.709L399.558 63.21ZM420.568 68.93L421.049 69.8069L421.058 69.8016L420.568 68.93ZM426.398 62.66L426.877 61.7821L425.994 61.3007L425.517 62.1859L426.398 62.66ZM439.708 69.92L440.616 70.3391L441.008 69.4899L440.187 69.0421L439.708 69.92ZM429.478 81.03L429.963 81.9042L429.974 81.8982L429.478 81.03ZM413.198 83.88C406.955 83.88 401.432 82.6252 396.605 80.1409L395.69 81.9191C400.837 84.5681 406.681 85.88 413.198 85.88V83.88ZM396.616 80.1462C391.78 77.586 387.991 74.0767 385.228 69.6136L383.527 70.6664C386.485 75.4433 390.543 79.194 395.68 81.9138L396.616 80.1462ZM385.234 69.6235C382.55 65.1729 381.198 60.1111 381.198 54.41H379.198C379.198 60.4422 380.633 65.8671 383.521 70.6565L385.234 69.6235ZM381.198 54.41C381.198 48.6328 382.551 43.5745 385.23 39.2026L383.525 38.1574C380.631 42.8788 379.198 48.3072 379.198 54.41H381.198ZM385.228 39.2064C387.989 34.7458 391.775 31.2756 396.605 28.7892L395.69 27.0109C390.548 29.6578 386.486 33.3742 383.527 38.1536L385.228 39.2064ZM396.616 28.7838C401.44 26.2296 406.959 24.94 413.198 24.94V22.94C406.676 22.94 400.829 24.2904 395.68 27.0162L396.616 28.7838ZM413.198 24.94C419.287 24.94 424.537 26.2285 428.982 28.7683L429.974 27.0318C425.179 24.2916 419.575 22.94 413.198 22.94V24.94ZM428.992 28.7742C433.424 31.2361 436.685 34.7775 438.797 39.4238L440.618 38.5962C438.33 33.5625 434.772 29.6972 429.963 27.0258L428.992 28.7742ZM439.235 38.1291L425.925 45.2791L426.871 47.0409L440.181 39.8909L439.235 38.1291ZM427.273 45.6763C425.66 42.7571 423.594 40.5549 421.058 39.1284L420.077 40.8716C422.235 42.0851 424.056 43.9895 425.522 46.6437L427.273 45.6763ZM421.07 39.1352C418.639 37.7237 415.972 37.02 413.088 37.02V39.02C415.631 39.02 417.95 39.6364 420.066 40.8649L421.07 39.1352ZM413.088 37.02C409.998 37.02 407.187 37.7168 404.677 39.1284L405.658 40.8716C407.842 39.6432 410.31 39.02 413.088 39.02V37.02ZM404.677 39.1284C402.168 40.5399 400.171 42.5413 398.691 45.111L400.424 46.109C401.731 43.8387 403.474 42.1001 405.658 40.8716L404.677 39.1284ZM398.68 45.1311C397.262 47.7304 396.578 50.8372 396.578 54.41H398.578C398.578 51.0895 399.213 48.3296 400.436 46.0889L398.68 45.1311ZM396.578 54.41C396.578 57.9828 397.262 61.0896 398.68 63.6889L400.436 62.7311C399.213 60.4904 398.578 57.7305 398.578 54.41H396.578ZM398.691 63.709C400.171 66.2787 402.168 68.2801 404.677 69.6916L405.658 67.9484C403.474 66.7199 401.731 64.9813 400.424 62.711L398.691 63.709ZM404.677 69.6916C407.187 71.1032 409.998 71.8 413.088 71.8V69.8C410.31 69.8 407.842 69.1768 405.658 67.9484L404.677 69.6916ZM413.088 71.8C415.961 71.8 418.621 71.1382 421.049 69.8069L420.087 68.0532C417.968 69.2152 415.641 69.8 413.088 69.8V71.8ZM421.058 69.8016C423.601 68.3711 425.667 66.1262 427.278 63.1341L425.517 62.1859C424.048 64.9138 422.228 66.8489 420.077 68.0584L421.058 69.8016ZM425.919 63.5379L439.229 70.7979L440.187 69.0421L426.877 61.7821L425.919 63.5379ZM438.8 69.5009C436.688 74.076 433.424 77.6235 428.982 80.1618L429.974 81.8982C434.772 79.1565 438.327 75.2974 440.616 70.3391L438.8 69.5009ZM428.992 80.1558C424.545 82.6263 419.292 83.88 413.198 83.88V85.88C419.57 85.88 425.17 84.567 429.963 81.9042L428.992 80.1558ZM460.386 80.92L459.923 81.8066L459.929 81.8093L460.386 80.92ZM448.616 70.14L447.76 70.6565L447.763 70.6626L448.616 70.14ZM448.506 38.68L447.65 38.1635L447.647 38.1675L448.506 38.68ZM459.836 27.9L460.31 28.7805L460.321 28.7748L459.836 27.9ZM491.626 27.68L491.151 28.56L491.159 28.5645L491.168 28.5688L491.626 27.68ZM502.736 38.24L501.874 38.7464L501.877 38.7525L502.736 38.24ZM506.696 56.94L507.692 57.0305L507.693 57.023L506.696 56.94ZM506.476 59.25V60.25H507.381L507.471 59.3495L506.476 59.25ZM458.406 59.25H457.406V60.25H458.406V59.25ZM458.406 49.24V48.24H457.406V49.24H458.406ZM497.456 49.24L497.866 50.1519L497.456 48.24V49.24ZM490.856 52.21H489.856V53.7566L491.266 53.1219L490.856 52.21ZM483.816 38.9L483.302 39.7575L483.312 39.7639L483.323 39.77L483.816 38.9ZM468.306 38.9L468.799 39.7701L468.808 39.7648L468.306 38.9ZM463.136 44.29L464.013 44.7709L464.019 44.7592L463.136 44.29ZM463.356 63.65L462.483 64.1378L462.492 64.1532L462.501 64.1683L463.356 63.65ZM469.406 69.26L468.949 70.1493L468.964 70.157L468.979 70.1642L469.406 69.26ZM486.896 69.7L486.529 68.7695L486.52 68.7735L486.896 69.7ZM493.496 65.41L494.231 64.7321L493.538 63.9809L492.802 64.6897L493.496 65.41ZM502.626 75.31L503.376 75.971L503.972 75.2947L503.361 74.6321L502.626 75.31ZM492.396 82.46L492.762 83.3908L492.769 83.3879L492.776 83.385L492.396 82.46ZM478.206 83.88C471.592 83.88 465.813 82.5866 460.843 80.0307L459.929 81.8093C465.226 84.5334 471.327 85.88 478.206 85.88V83.88ZM460.849 80.0334C455.937 77.4711 452.154 73.9988 449.469 69.6174L447.763 70.6626C450.651 75.3745 454.715 79.0889 459.923 81.8066L460.849 80.0334ZM449.472 69.6235C446.788 65.1729 445.436 60.1111 445.436 54.41H443.436C443.436 60.4422 444.871 65.8671 447.76 70.6565L449.472 69.6235ZM445.436 54.41C445.436 48.6279 446.755 43.5659 449.365 39.1925L447.647 38.1675C444.831 42.8874 443.436 48.3121 443.436 54.41H445.436ZM449.362 39.1965C452.056 34.7304 455.701 31.2625 460.31 28.7805L459.362 27.0195C454.438 29.6708 450.529 33.3896 447.65 38.1635L449.362 39.1965ZM460.321 28.7748C464.924 26.2252 470.144 24.94 476.006 24.94V22.94C469.841 22.94 464.281 24.2948 459.352 27.0252L460.321 28.7748ZM476.006 24.94C481.651 24.94 486.692 26.1534 491.151 28.56L492.101 26.8C487.32 24.22 481.948 22.94 476.006 22.94V24.94ZM491.168 28.5688C495.69 30.9008 499.255 34.287 501.874 38.7464L503.598 37.7336C500.791 32.953 496.948 29.2992 492.084 26.7912L491.168 28.5688ZM501.877 38.7525C504.481 43.1152 505.806 48.3934 505.806 54.63H507.806C507.806 48.1066 506.418 42.4582 503.595 37.7275L501.877 38.7525ZM505.806 54.63C505.806 55.2548 505.771 55.996 505.699 56.857L507.693 57.023C507.767 56.124 507.806 55.3252 507.806 54.63H505.806ZM505.7 56.8495C505.627 57.6534 505.554 58.4204 505.481 59.1505L507.471 59.3495C507.545 58.6129 507.618 57.8399 507.692 57.0305L505.7 56.8495ZM506.476 58.25H458.406V60.25H506.476V58.25ZM459.406 59.25V49.24H457.406V59.25H459.406ZM458.406 50.24H497.456V48.24H458.406V50.24ZM497.046 48.3281L490.446 51.2981L491.266 53.1219L497.866 50.1519L497.046 48.3281ZM491.856 52.21C491.856 48.9935 491.204 46.1453 489.863 43.6992L488.109 44.6608C489.261 46.7614 489.856 49.2665 489.856 52.21H491.856ZM489.863 43.6992C488.529 41.2673 486.675 39.3706 484.309 38.03L483.323 39.77C485.357 40.9227 486.949 42.546 488.109 44.6608L489.863 43.6992ZM484.331 38.0425C481.954 36.6165 479.204 35.92 476.116 35.92V37.92C478.895 37.92 481.278 38.5435 483.302 39.7575L484.331 38.0425ZM476.116 35.92C473.027 35.92 470.247 36.6167 467.804 38.0352L468.808 39.7648C470.912 38.5433 473.338 37.92 476.116 37.92V35.92ZM467.813 38.03C465.439 39.3753 463.584 41.3151 462.253 43.8208L464.019 44.7592C465.181 42.5715 466.773 40.9181 468.799 39.7701L467.813 38.03ZM462.259 43.8092C460.916 46.2586 460.266 49.1447 460.266 52.43H462.266C462.266 49.4087 462.863 46.8682 464.013 44.7709L462.259 43.8092ZM460.266 52.43V55.07H462.266V52.43H460.266ZM460.266 55.07C460.266 58.4449 460.996 61.4769 462.483 64.1378L464.229 63.1622C462.929 60.8364 462.266 58.1484 462.266 55.07H460.266ZM462.501 64.1683C464.065 66.7496 466.221 68.7465 468.949 70.1493L469.863 68.3707C467.458 67.1335 465.58 65.3904 464.211 63.1317L462.501 64.1683ZM468.979 70.1642C471.777 71.4856 475.008 72.13 478.646 72.13V70.13C475.244 70.13 472.315 69.5277 469.833 68.3558L468.979 70.1642ZM478.646 72.13C481.898 72.13 484.781 71.6387 487.272 70.6265L486.52 68.7735C484.318 69.668 481.701 70.13 478.646 70.13V72.13ZM487.263 70.6304C489.811 69.6264 492.121 68.1225 494.19 66.1303L492.802 64.6897C490.911 66.5108 488.821 67.8668 486.529 68.7695L487.263 70.6304ZM492.761 66.0879L501.891 75.9879L503.361 74.6321L494.231 64.7321L492.761 66.0879ZM501.876 74.649C499.272 77.6045 495.992 79.9018 492.016 81.535L492.776 83.385C497.013 81.6448 500.553 79.1755 503.376 75.971L501.876 74.649ZM492.03 81.5292C488.062 83.0882 483.46 83.88 478.206 83.88V85.88C483.659 85.88 488.517 85.0585 492.762 83.3908L492.03 81.5292Z" fill="#29D48C"/>
</g>
</svg>
