<svg width="134" height="134" viewBox="0 0 134 134" fill="none" xmlns="http://www.w3.org/2000/svg">
<rect x="0.594341" y="0.594341" width="131.944" height="131.944" rx="65.9719" fill="#171717" fill-opacity="0.6"/>
<rect x="0.594341" y="0.594341" width="131.944" height="131.944" rx="65.9719" stroke="white" stroke-width="1.18868"/>
<mask id="path-2-outside-1_184123_11" maskUnits="userSpaceOnUse" x="23.1511" y="38.0188" width="64" height="57" fill="black">
<rect fill="white" x="23.1511" y="38.0188" width="64" height="57"/>
<path d="M25.4664 93.0188L49.2021 39.7658H61.3742L85.1858 93.0188H72.253L52.7776 46.004H57.6465L38.095 93.0188H25.4664ZM37.3342 81.6074L40.6055 72.2501H67.9927L71.3401 81.6074H37.3342Z"/>
</mask>
<path d="M25.4664 93.0188L24.3807 92.5349L23.6352 94.2075H25.4664V93.0188ZM49.2021 39.7658V38.5771H48.4305L48.1163 39.2819L49.2021 39.7658ZM61.3742 39.7658L62.4593 39.2806L62.1448 38.5771H61.3742V39.7658ZM85.1858 93.0188V94.2075H87.0195L86.271 92.5336L85.1858 93.0188ZM72.253 93.0188L71.1548 93.4737L71.4588 94.2075H72.253V93.0188ZM52.7776 46.004V44.8153H50.9986L51.6794 46.4589L52.7776 46.004ZM57.6465 46.004L58.744 46.4605L59.4281 44.8153H57.6465V46.004ZM38.095 93.0188V94.2075H38.8881L39.1926 93.4752L38.095 93.0188ZM37.3342 81.6074L36.2122 81.2152L35.6595 82.7961H37.3342V81.6074ZM40.6055 72.2501V71.0615H39.7618L39.4834 71.8579L40.6055 72.2501ZM67.9927 72.2501L69.112 71.8498L68.83 71.0615H67.9927V72.2501ZM71.3401 81.6074V82.7961H73.0277L72.4593 81.2071L71.3401 81.6074ZM26.5522 93.5027L50.2878 40.2497L48.1163 39.2819L24.3807 92.5349L26.5522 93.5027ZM49.2021 40.9545H61.3742V38.5771H49.2021V40.9545ZM60.289 40.251L84.1007 93.504L86.271 92.5336L62.4593 39.2806L60.289 40.251ZM85.1858 91.8301H72.253V94.2075H85.1858V91.8301ZM73.3512 92.5639L53.8758 45.5491L51.6794 46.4589L71.1548 93.4737L73.3512 92.5639ZM52.7776 47.1927H57.6465V44.8153H52.7776V47.1927ZM56.5489 45.5476L36.9974 92.5624L39.1926 93.4752L58.744 46.4605L56.5489 45.5476ZM38.095 91.8301H25.4664V94.2075H38.095V91.8301ZM38.4563 81.9997L41.7276 72.6424L39.4834 71.8579L36.2122 81.2152L38.4563 81.9997ZM40.6055 73.4388H67.9927V71.0615H40.6055V73.4388ZM66.8735 72.6505L70.2209 82.0078L72.4593 81.2071L69.112 71.8498L66.8735 72.6505ZM71.3401 80.4188H37.3342V82.7961H71.3401V80.4188Z" fill="white" mask="url(#path-2-outside-1_184123_11)"/>
<mask id="path-4-outside-2_184123_11" maskUnits="userSpaceOnUse" x="54.8835" y="38.0188" width="52" height="57" fill="black">
<rect fill="white" x="54.8835" y="38.0188" width="52" height="57"/>
<path d="M56.1978 93.0188V39.7658H82.2157C88.9104 39.7658 93.9314 41.0338 97.2787 43.5696C100.677 46.1055 102.376 49.4528 102.376 53.6116C102.376 56.401 101.691 58.8355 100.322 60.9149C98.9524 62.9435 97.0758 64.5158 94.6921 65.6316C92.3084 66.7473 89.5697 67.3052 86.4759 67.3052L87.9214 64.1861C91.2687 64.1861 94.2357 64.744 96.8222 65.8598C99.4088 66.9248 101.412 68.5224 102.832 70.6526C104.303 72.7827 105.038 75.3946 105.038 78.4883C105.038 83.0529 103.238 86.6284 99.637 89.215C96.0361 91.7509 90.7362 93.0188 83.7372 93.0188H56.1978ZM68.446 83.7376H82.8243C86.0195 83.7376 88.4286 83.2304 90.0515 82.2161C91.7252 81.151 92.562 79.4773 92.562 77.1951C92.562 74.9635 91.7252 73.3152 90.0515 72.2501C88.4286 71.1344 86.0195 70.5765 82.8243 70.5765H67.5331V61.5995H80.6942C83.6865 61.5995 85.9688 61.0924 87.541 60.078C89.164 59.013 89.9754 57.4154 89.9754 55.2853C89.9754 53.2059 89.164 51.659 87.541 50.6446C85.9688 49.5796 83.6865 49.0471 80.6942 49.0471H68.446V83.7376Z"/>
</mask>
<path d="M56.1978 93.0188H55.0091V94.2075H56.1978V93.0188ZM56.1978 39.7658V38.5771H55.0091V39.7658H56.1978ZM97.2787 43.5696L96.5609 44.5171L96.5678 44.5223L97.2787 43.5696ZM100.322 60.9149L101.307 61.5799L101.314 61.5686L100.322 60.9149ZM94.6921 65.6316L95.1961 66.7081V66.7081L94.6921 65.6316ZM86.4759 67.3052L85.3974 66.8054L84.615 68.4939H86.4759V67.3052ZM87.9214 64.1861V62.9974H87.1621L86.8429 63.6863L87.9214 64.1861ZM96.8222 65.8598L96.3514 66.9512L96.3605 66.9552L96.3696 66.9589L96.8222 65.8598ZM102.832 70.6525L101.843 71.3119L101.849 71.32L101.854 71.3279L102.832 70.6525ZM99.637 89.215L100.321 90.1869L100.331 90.1804L99.637 89.215ZM68.446 83.7376H67.2573V84.9262H68.446V83.7376ZM90.0515 82.2161L90.6815 83.2241L90.6897 83.2189L90.0515 82.2161ZM90.0515 72.2501L89.3781 73.2297L89.3955 73.2416L89.4133 73.253L90.0515 72.2501ZM67.5331 70.5765H66.3444V71.7652H67.5331V70.5765ZM67.5331 61.5995V60.4109H66.3444V61.5995H67.5331ZM87.541 60.078L88.1854 61.0769L88.1932 61.0718L87.541 60.078ZM87.541 50.6446L86.8743 51.6288L86.8925 51.641L86.911 51.6526L87.541 50.6446ZM68.446 49.0471V47.8584H67.2573V49.0471H68.446ZM57.3865 93.0188V39.7658H55.0091V93.0188H57.3865ZM56.1978 40.9545H82.2157V38.5771H56.1978V40.9545ZM82.2157 40.9545C88.7942 40.9545 93.5107 42.2064 96.5609 44.5171L97.9965 42.6221C94.352 39.8611 89.0266 38.5771 82.2157 38.5771V40.9545ZM96.5678 44.5223C99.6721 46.8389 101.187 49.8365 101.187 53.6116H103.564C103.564 49.0691 101.681 45.372 97.9896 42.617L96.5678 44.5223ZM101.187 53.6116C101.187 56.1976 100.555 58.3986 99.329 60.2611L101.314 61.5686C102.827 59.2723 103.564 56.6045 103.564 53.6116H101.187ZM99.3365 60.2498C98.0965 62.0869 96.3924 63.5232 94.1882 64.555L95.1961 66.7081C97.7592 65.5083 99.8083 63.8002 101.307 61.5799L99.3365 60.2498ZM94.1882 64.555C91.9875 65.5851 89.4258 66.1165 86.4759 66.1165V68.4939C89.7136 68.4939 92.6293 67.9096 95.1961 66.7081L94.1882 64.555ZM87.5545 67.805L88.9999 64.6859L86.8429 63.6863L85.3974 66.8054L87.5545 67.805ZM87.9214 65.3748C91.1368 65.3748 93.9388 65.9105 96.3514 66.9512L97.2931 64.7683C94.5326 63.5775 91.4007 62.9974 87.9214 62.9974V65.3748ZM96.3696 66.9589C98.7588 67.9427 100.566 69.3967 101.843 71.3119L103.821 69.9932C102.258 67.6482 100.059 65.907 97.2748 64.7606L96.3696 66.9589ZM101.854 71.3279C103.163 73.2234 103.85 75.5879 103.85 78.4883H106.227C106.227 75.2013 105.443 72.342 103.81 69.9772L101.854 71.3279ZM103.85 78.4883C103.85 82.6835 102.223 85.894 98.9436 88.2496L100.331 90.1804C104.253 87.3629 106.227 83.4223 106.227 78.4883H103.85ZM98.9526 88.2431C95.6387 90.5769 90.6243 91.8301 83.7372 91.8301V94.2075C90.8481 94.2075 96.4336 92.9248 100.321 90.1869L98.9526 88.2431ZM83.7372 91.8301H56.1978V94.2075H83.7372V91.8301ZM68.446 84.9262H82.8243V82.5489H68.446V84.9262ZM82.8243 84.9262C86.1092 84.9262 88.7819 84.4113 90.6815 83.2241L89.4215 81.2081C88.0752 82.0495 85.9298 82.5489 82.8243 82.5489V84.9262ZM90.6897 83.2189C92.7627 81.8997 93.7507 79.8119 93.7507 77.1951H91.3733C91.3733 79.1427 90.6876 80.4023 89.4133 81.2132L90.6897 83.2189ZM93.7507 77.1951C93.7507 74.6171 92.754 72.5609 90.6897 71.2473L89.4133 73.253C90.6964 74.0695 91.3733 75.3099 91.3733 77.1951H93.7507ZM90.7249 71.2706C88.8152 69.9577 86.1235 69.3878 82.8243 69.3878V71.7652C85.9155 71.7652 88.0419 72.311 89.3781 73.2297L90.7249 71.2706ZM82.8243 69.3878H67.5331V71.7652H82.8243V69.3878ZM68.7218 70.5765V61.5995H66.3444V70.5765H68.7218ZM67.5331 62.7882H80.6942V60.4109H67.5331V62.7882ZM80.6942 62.7882C83.7902 62.7882 86.3379 62.2689 88.1854 61.0769L86.8966 59.0792C85.5997 59.9159 83.5828 60.4109 80.6942 60.4109V62.7882ZM88.1932 61.0718C90.1878 59.7629 91.1641 57.7697 91.1641 55.2853H88.7867C88.7867 57.061 88.1401 58.2631 86.8888 59.0842L88.1932 61.0718ZM91.1641 55.2853C91.1641 52.8385 90.1761 50.8898 88.171 49.6366L86.911 51.6526C88.1518 52.4282 88.7867 53.5732 88.7867 55.2853H91.1641ZM88.2077 49.6605C86.3552 48.4056 83.7981 47.8584 80.6942 47.8584V50.2357C83.5749 50.2357 85.5823 50.7535 86.8743 51.6288L88.2077 49.6605ZM80.6942 47.8584H68.446V50.2357H80.6942V47.8584ZM67.2573 49.0471V83.7376H69.6347V49.0471H67.2573Z" fill="#29D48C" mask="url(#path-4-outside-2_184123_11)"/>
</svg>
